# 3ds Max Wavefront OBJ Exporter v0.99 - (c)2007 guruware
# File Created: 01.12.2025 15:44:19

mtllib 1.mtl

#
# object TextPlus004
#

v  -38.9902 0.0000 -22.5178
v  -38.9902 0.0010 -22.5178
v  -38.9902 0.0010 -6.4428
v  -38.9902 0.0000 -6.4428
v  -41.4863 0.0000 -22.5178
v  -41.4863 0.0010 -22.5178
v  -41.6860 0.0000 -22.0404
v  -41.6860 0.0010 -22.0404
v  -41.9350 0.0000 -21.5832
v  -41.9350 0.0010 -21.5832
v  -42.2333 0.0000 -21.1464
v  -42.2333 0.0010 -21.1464
v  -42.5809 0.0000 -20.7299
v  -42.5809 0.0010 -20.7299
v  -42.9777 0.0000 -20.3337
v  -42.9777 0.0010 -20.3337
v  -43.4238 0.0000 -19.9579
v  -43.4238 0.0010 -19.9579
v  -43.8887 0.0000 -19.6117
v  -43.8887 0.0010 -19.6117
v  -44.3421 0.0000 -19.3047
v  -44.3421 0.0010 -19.3047
v  -44.7839 0.0000 -19.0368
v  -44.7839 0.0010 -19.0368
v  -45.2142 0.0000 -18.8080
v  -45.2142 0.0010 -18.8080
v  -45.6330 0.0000 -18.6184
v  -45.6330 0.0010 -18.6184
v  -46.0402 0.0000 -18.4678
v  -46.0402 0.0010 -18.4678
v  -46.0402 0.0000 -15.6928
v  -46.0402 0.0010 -15.6928
v  -45.2940 0.0000 -15.9658
v  -45.2940 0.0010 -15.9658
v  -44.5813 0.0000 -16.2841
v  -44.5813 0.0010 -16.2841
v  -43.9021 0.0000 -16.6477
v  -43.9021 0.0010 -16.6477
v  -43.2563 0.0000 -17.0567
v  -43.2563 0.0010 -17.0567
v  -42.6440 0.0000 -17.5111
v  -42.6440 0.0010 -17.5111
v  -42.0652 0.0000 -18.0108
v  -42.0652 0.0010 -18.0108
v  -42.0652 0.0000 -6.4428
v  -42.0652 0.0010 -6.4428
v  -42.0652 3.0010 -18.0108
v  -42.0652 3.0010 -6.4428
v  -38.9902 3.0010 -6.4428
v  -38.9902 3.0010 -22.5178
v  -41.4863 3.0010 -22.5178
v  -41.6860 3.0010 -22.0404
v  -41.9350 3.0010 -21.5832
v  -42.2333 3.0010 -21.1464
v  -42.5809 3.0010 -20.7299
v  -42.9777 3.0010 -20.3337
v  -43.4238 3.0010 -19.9579
v  -43.8887 3.0010 -19.6117
v  -46.0402 3.0010 -18.4678
v  -46.0402 3.0010 -15.6928
v  -45.2940 3.0010 -15.9658
v  -44.5813 3.0010 -16.2841
v  -45.6330 3.0010 -18.6184
v  -43.9021 3.0010 -16.6477
v  -45.2142 3.0010 -18.8080
v  -44.7839 3.0010 -19.0368
v  -43.2563 3.0010 -17.0567
v  -44.3421 3.0010 -19.3047
v  -42.6440 3.0010 -17.5111
# 69 vertices

vn 1.0000 0.0000 -0.0000
vn 0.0000 0.0000 -1.0000
vn -0.9015 0.0000 -0.4327
vn -0.9225 0.0000 -0.3860
vn -0.8531 0.0000 -0.5218
vn -0.7977 0.0000 -0.6030
vn -0.7379 0.0000 -0.6749
vn -0.6760 0.0000 -0.7369
vn -0.6210 0.0000 -0.7838
vn -0.5791 0.0000 -0.8153
vn -0.5398 0.0000 -0.8418
vn -0.4942 0.0000 -0.8694
vn -0.4412 0.0000 -0.8974
vn -0.3799 0.0000 -0.9250
vn -0.3468 0.0000 -0.9380
vn -1.0000 0.0000 -0.0000
vn 0.3759 0.0000 0.9267
vn 0.3435 0.0000 0.9391
vn 0.4402 0.0000 0.8979
vn 0.5039 0.0000 0.8638
vn 0.5659 0.0000 0.8245
vn 0.6251 0.0000 0.7805
vn 0.6535 0.0000 0.7569
vn 0.0000 0.0000 1.0000
vn 0.0000 1.0000 -0.0000
vn 0.0000 -1.0000 -0.0000
vn -0.8782 0.0000 -0.4784
vn -0.8258 0.0000 -0.5639
vn -0.7678 0.0000 -0.6407
vn -0.7065 0.0000 -0.7077
vn -0.6443 0.0000 -0.7647
vn -0.5972 0.0000 -0.8021
vn -0.5607 0.0000 -0.8280
vn -0.5185 0.0000 -0.8551
vn -0.4695 0.0000 -0.8830
vn -0.4126 0.0000 -0.9109
vn 0.4078 0.0000 0.9131
vn 0.4720 0.0000 0.8816
vn 0.5351 0.0000 0.8448
vn 0.5959 0.0000 0.8031
# 40 vertex normals

o TextPlus004
g TextPlus004
usemtl wire_035030158
s 1
f 1//1 2//1 3//1 
f 3//1 4//1 1//1 
s 4
f 5//2 6//2 2//2 
f 2//2 1//2 5//2 
s 2
f 7//3 8//3 6//4 
f 6//4 5//4 7//3 
f 9//5 10//5 8//3 
f 8//3 7//3 9//5 
f 11//6 12//6 10//5 
f 10//5 9//5 11//6 
f 13//7 14//7 12//6 
f 12//6 11//6 13//7 
f 15//8 16//8 14//7 
f 14//7 13//7 15//8 
f 17//9 18//9 16//8 
f 16//8 15//8 17//9 
f 19//10 20//10 18//9 
f 18//9 17//9 19//10 
f 21//11 22//11 20//10 
f 20//10 19//10 21//11 
f 23//12 24//12 22//11 
f 22//11 21//11 23//12 
f 25//13 26//13 24//12 
f 24//12 23//12 25//13 
f 27//14 28//14 26//13 
f 26//13 25//13 27//14 
f 29//15 30//15 28//14 
f 28//14 27//14 29//15 
s 4
f 31//16 32//16 30//16 
f 30//16 29//16 31//16 
s 2
f 33//17 34//17 32//18 
f 32//18 31//18 33//17 
f 35//19 36//19 34//17 
f 34//17 33//17 35//19 
f 37//20 38//20 36//19 
f 36//19 35//19 37//20 
f 39//21 40//21 38//20 
f 38//20 37//20 39//21 
f 41//22 42//22 40//21 
f 40//21 39//21 41//22 
f 43//23 44//23 42//22 
f 42//22 41//22 43//23 
s 4
f 45//16 46//16 44//16 
f 44//16 43//16 45//16 
s 2
f 4//24 3//24 46//24 
f 46//24 45//24 4//24 
s 512
f 47//25 48//25 49//25 
f 47//25 49//25 50//25 
f 47//25 50//25 51//25 
f 47//25 51//25 52//25 
f 47//25 52//25 53//25 
f 47//25 53//25 54//25 
f 47//25 54//25 55//25 
f 47//25 55//25 56//25 
f 47//25 56//25 57//25 
f 47//25 57//25 58//25 
f 59//25 60//25 61//25 
f 59//25 61//25 62//25 
f 63//25 59//25 62//25 
f 63//25 62//25 64//25 
f 65//25 63//25 64//25 
f 66//25 65//25 64//25 
f 66//25 64//25 67//25 
f 68//25 66//25 67//25 
f 68//25 67//25 69//25 
f 58//25 68//25 69//25 
f 47//25 58//25 69//25 
f 33//26 31//26 29//26 
f 35//26 33//26 29//26 
f 35//26 29//26 27//26 
f 37//26 35//26 27//26 
f 37//26 27//26 25//26 
f 37//26 25//26 23//26 
f 39//26 37//26 23//26 
f 39//26 23//26 21//26 
f 41//26 39//26 21//26 
f 41//26 21//26 19//26 
f 43//26 41//26 19//26 
f 43//26 19//26 17//26 
f 43//26 17//26 15//26 
f 43//26 15//26 13//26 
f 43//26 13//26 11//26 
f 43//26 11//26 9//26 
f 43//26 9//26 7//26 
f 43//26 7//26 5//26 
f 43//26 5//26 1//26 
f 43//26 1//26 4//26 
f 43//26 4//26 45//26 
s off
f 3//1 2//1 50//1 
f 50//1 49//1 3//1 
f 2//2 6//2 51//2 
f 51//2 50//2 2//2 
f 6//4 8//4 52//4 
f 52//4 51//4 6//4 
f 8//27 10//27 53//27 
f 53//27 52//27 8//27 
f 10//28 12//28 54//28 
f 54//28 53//28 10//28 
f 12//29 14//29 55//29 
f 55//29 54//29 12//29 
f 14//30 16//30 56//30 
f 56//30 55//30 14//30 
f 16//31 18//31 57//31 
f 57//31 56//31 16//31 
f 18//32 20//32 58//32 
f 58//32 57//32 18//32 
f 20//33 22//33 68//33 
f 68//33 58//33 20//33 
f 22//34 24//34 66//34 
f 66//34 68//34 22//34 
f 24//35 26//35 65//35 
f 65//35 66//35 24//35 
f 26//36 28//36 63//36 
f 63//36 65//36 26//36 
f 28//15 30//15 59//15 
f 59//15 63//15 28//15 
f 30//16 32//16 60//16 
f 60//16 59//16 30//16 
f 32//18 34//18 61//18 
f 61//18 60//18 32//18 
f 34//37 36//37 62//37 
f 62//37 61//37 34//37 
f 36//38 38//38 64//38 
f 64//38 62//38 36//38 
f 38//39 40//39 67//39 
f 67//39 64//39 38//39 
f 40//40 42//40 69//40 
f 69//40 67//40 40//40 
f 42//23 44//23 47//23 
f 47//23 69//23 42//23 
f 44//16 46//16 48//16 
f 48//16 47//16 44//16 
f 46//24 3//24 49//24 
f 49//24 48//24 46//24 
# 134 faces

