# 3ds Max Wavefront OBJ Exporter v0.99 - (c)2007 guruware
# File Created: 01.12.2025 15:44:53

mtllib 2.mtl

#
# object TextPlus003
#

v  27.5422 0.0000 -15.8368
v  27.5422 0.0010 -15.8368
v  33.6644 0.0010 -15.8368
v  33.6644 0.0000 -15.8368
v  27.6266 0.0000 -15.9757
v  27.6266 0.0010 -15.9757
v  27.7193 0.0000 -16.1158
v  27.7193 0.0010 -16.1158
v  27.8201 0.0000 -16.2572
v  27.8201 0.0010 -16.2572
v  27.9292 0.0000 -16.3998
v  27.9292 0.0010 -16.3998
v  28.0464 0.0000 -16.5436
v  28.0464 0.0010 -16.5436
v  28.1719 0.0000 -16.6886
v  28.1719 0.0010 -16.6886
v  28.3313 0.0000 -16.8591
v  28.3313 0.0010 -16.8591
v  28.5503 0.0000 -17.0793
v  28.5503 0.0010 -17.0793
v  28.8290 0.0000 -17.3493
v  28.8290 0.0010 -17.3493
v  29.1674 0.0000 -17.6691
v  29.1674 0.0010 -17.6691
v  29.5654 0.0000 -18.0385
v  29.5654 0.0010 -18.0385
v  30.0230 0.0000 -18.4577
v  30.0230 0.0010 -18.4577
v  30.4854 0.0000 -18.8845
v  30.4854 0.0010 -18.8845
v  30.8976 0.0000 -19.2768
v  30.8976 0.0010 -19.2768
v  31.2595 0.0000 -19.6344
v  31.2595 0.0010 -19.6344
v  31.5711 0.0000 -19.9576
v  31.5711 0.0010 -19.9576
v  31.8326 0.0000 -20.2461
v  31.8326 0.0010 -20.2461
v  32.0437 0.0000 -20.5001
v  32.0437 0.0010 -20.5001
v  32.3122 0.0000 -20.8542
v  32.3122 0.0010 -20.8542
v  32.5555 0.0000 -21.2031
v  32.5555 0.0010 -21.2031
v  32.7734 0.0000 -21.5469
v  32.7734 0.0010 -21.5469
v  32.9661 0.0000 -21.8856
v  32.9661 0.0010 -21.8856
v  33.1336 0.0000 -22.2192
v  33.1336 0.0010 -22.2192
v  33.2758 0.0000 -22.5476
v  33.2758 0.0010 -22.5476
v  33.3945 0.0000 -22.8763
v  33.3945 0.0010 -22.8763
v  33.4917 0.0000 -23.2108
v  33.4917 0.0010 -23.2108
v  33.5673 0.0000 -23.5510
v  33.5673 0.0010 -23.5510
v  33.6213 0.0000 -23.8971
v  33.6213 0.0010 -23.8971
v  33.6536 0.0000 -24.2488
v  33.6536 0.0010 -24.2488
v  33.6644 0.0000 -24.6064
v  33.6644 0.0010 -24.6064
v  33.6266 0.0000 -25.2224
v  33.6266 0.0010 -25.2224
v  33.5132 0.0000 -25.8039
v  33.5132 0.0010 -25.8039
v  33.3242 0.0000 -26.3508
v  33.3242 0.0010 -26.3508
v  33.0595 0.0000 -26.8631
v  33.0595 0.0010 -26.8631
v  32.7192 0.0000 -27.3409
v  32.7192 0.0010 -27.3409
v  32.3033 0.0000 -27.7841
v  32.3033 0.0010 -27.7841
v  31.8212 0.0000 -28.1745
v  31.8212 0.0010 -28.1745
v  31.2825 0.0000 -28.4940
v  31.2825 0.0010 -28.4940
v  30.6870 0.0000 -28.7424
v  30.6870 0.0010 -28.7424
v  30.0347 0.0000 -28.9199
v  30.0347 0.0010 -28.9199
v  29.3258 0.0000 -29.0263
v  29.3258 0.0010 -29.0263
v  28.5601 0.0000 -29.0618
v  28.5601 0.0010 -29.0618
v  27.8558 0.0000 -29.0312
v  27.8558 0.0010 -29.0312
v  27.1917 0.0000 -28.9392
v  27.1917 0.0010 -28.9392
v  26.5679 0.0000 -28.7858
v  26.5679 0.0010 -28.7858
v  25.9843 0.0000 -28.5711
v  25.9843 0.0010 -28.5711
v  25.4410 0.0000 -28.2951
v  25.4410 0.0010 -28.2951
v  24.9379 0.0000 -27.9577
v  24.9379 0.0010 -27.9577
v  24.4876 0.0000 -27.5499
v  24.4876 0.0010 -27.5499
v  24.1025 0.0000 -27.0626
v  24.1025 0.0010 -27.0626
v  23.7826 0.0000 -26.4957
v  23.7826 0.0010 -26.4957
v  23.5280 0.0000 -25.8492
v  23.5280 0.0010 -25.8492
v  23.3386 0.0000 -25.1232
v  23.3386 0.0010 -25.1232
v  23.2144 0.0000 -24.3177
v  23.2144 0.0010 -24.3177
v  26.2644 0.0000 -24.0118
v  26.2644 0.0010 -24.0118
v  26.3076 0.0000 -24.4383
v  26.3076 0.0010 -24.4383
v  26.3778 0.0000 -24.8222
v  26.3778 0.0010 -24.8222
v  26.4751 0.0000 -25.1637
v  26.4751 0.0010 -25.1637
v  26.5996 0.0000 -25.4627
v  26.5996 0.0010 -25.4627
v  26.7512 0.0000 -25.7192
v  26.7512 0.0010 -25.7192
v  26.9299 0.0000 -25.9333
v  26.9299 0.0010 -25.9333
v  27.1332 0.0000 -26.1101
v  27.1332 0.0010 -26.1101
v  27.3587 0.0000 -26.2547
v  27.3587 0.0010 -26.2547
v  27.6064 0.0000 -26.3672
v  27.6064 0.0010 -26.3672
v  27.8762 0.0000 -26.4476
v  27.8762 0.0010 -26.4476
v  28.1682 0.0000 -26.4958
v  28.1682 0.0010 -26.4958
v  28.4824 0.0000 -26.5118
v  28.4824 0.0010 -26.5118
v  28.7996 0.0000 -26.4965
v  28.7996 0.0010 -26.4965
v  29.0930 0.0000 -26.4506
v  29.0930 0.0010 -26.4506
v  29.3627 0.0000 -26.3740
v  29.3627 0.0010 -26.3740
v  29.6087 0.0000 -26.2669
v  29.6087 0.0010 -26.2669
v  29.8310 0.0000 -26.1291
v  29.8310 0.0010 -26.1291
v  30.0295 0.0000 -25.9607
v  30.0295 0.0010 -25.9607
v  30.2006 0.0000 -25.7637
v  30.2006 0.0010 -25.7637
v  30.3406 0.0000 -25.5404
v  30.3406 0.0010 -25.5404
v  30.4495 0.0000 -25.2907
v  30.4495 0.0010 -25.2907
v  30.5272 0.0000 -25.0147
v  30.5272 0.0010 -25.0147
v  30.5739 0.0000 -24.7122
v  30.5739 0.0010 -24.7122
v  30.5894 0.0000 -24.3833
v  30.5894 0.0010 -24.3833
v  30.5718 0.0000 -24.0733
v  30.5718 0.0010 -24.0733
v  30.5189 0.0000 -23.7622
v  30.5189 0.0010 -23.7622
v  30.4307 0.0000 -23.4498
v  30.4307 0.0010 -23.4498
v  30.3072 0.0000 -23.1363
v  30.3072 0.0010 -23.1363
v  30.1484 0.0000 -22.8215
v  30.1484 0.0010 -22.8215
v  29.9543 0.0000 -22.5056
v  29.9543 0.0010 -22.5056
v  29.7525 0.0000 -22.2418
v  29.7525 0.0010 -22.2418
v  29.4613 0.0000 -21.9089
v  29.4613 0.0010 -21.9089
v  29.0807 0.0000 -21.5069
v  29.0807 0.0010 -21.5069
v  28.6105 0.0000 -21.0356
v  28.6105 0.0010 -21.0356
v  28.0510 0.0000 -20.4952
v  28.0510 0.0010 -20.4952
v  27.4019 0.0000 -19.8857
v  27.4019 0.0010 -19.8857
v  26.5878 0.0000 -19.1150
v  26.5878 0.0010 -19.1150
v  25.8686 0.0000 -18.3968
v  25.8686 0.0010 -18.3968
v  25.2443 0.0000 -17.7311
v  25.2443 0.0010 -17.7311
v  24.7150 0.0000 -17.1179
v  24.7150 0.0010 -17.1179
v  24.2805 0.0000 -16.5571
v  24.2805 0.0010 -16.5571
v  23.9410 0.0000 -16.0487
v  23.9410 0.0010 -16.0487
v  23.6684 0.0000 -15.5619
v  23.6684 0.0010 -15.5619
v  23.4348 0.0000 -15.0657
v  23.4348 0.0010 -15.0657
v  23.2400 0.0000 -14.5601
v  23.2400 0.0010 -14.5601
v  23.0842 0.0000 -14.0451
v  23.0842 0.0010 -14.0451
v  22.9674 0.0000 -13.5207
v  22.9674 0.0010 -13.5207
v  22.8894 0.0000 -12.9868
v  22.8894 0.0010 -12.9868
v  33.6644 0.0000 -12.9868
v  33.6644 0.0010 -12.9868
v  23.3386 3.0010 -25.1232
v  23.2144 3.0010 -24.3177
v  26.2644 3.0010 -24.0118
v  26.3076 3.0010 -24.4383
v  26.3778 3.0010 -24.8222
v  22.9674 3.0010 -13.5207
v  22.8894 3.0010 -12.9868
v  33.6644 3.0010 -12.9868
v  23.0842 3.0010 -14.0451
v  23.2400 3.0010 -14.5601
v  23.4348 3.0010 -15.0657
v  23.6684 3.0010 -15.5619
v  23.9410 3.0010 -16.0487
v  24.2805 3.0010 -16.5571
v  24.7150 3.0010 -17.1179
v  33.6644 3.0010 -15.8368
v  27.5422 3.0010 -15.8368
v  25.2443 3.0010 -17.7311
v  27.6266 3.0010 -15.9757
v  25.8686 3.0010 -18.3968
v  27.7193 3.0010 -16.1158
v  27.8201 3.0010 -16.2572
v  27.9292 3.0010 -16.3998
v  28.0464 3.0010 -16.5436
v  26.5878 3.0010 -19.1150
v  28.1719 3.0010 -16.6886
v  28.3313 3.0010 -16.8591
v  28.5503 3.0010 -17.0793
v  27.4019 3.0010 -19.8857
v  28.8290 3.0010 -17.3493
v  29.1674 3.0010 -17.6691
v  29.5654 3.0010 -18.0385
v  28.0510 3.0010 -20.4952
v  30.0230 3.0010 -18.4577
v  28.6105 3.0010 -21.0356
v  30.4854 3.0010 -18.8845
v  30.8976 3.0010 -19.2768
v  29.0807 3.0010 -21.5069
v  31.2595 3.0010 -19.6344
v  29.4613 3.0010 -21.9089
v  31.5711 3.0010 -19.9576
v  31.8326 3.0010 -20.2461
v  29.7525 3.0010 -22.2418
v  32.0437 3.0010 -20.5001
v  29.9543 3.0010 -22.5056
v  32.3122 3.0010 -20.8542
v  32.5555 3.0010 -21.2031
v  30.1484 3.0010 -22.8215
v  32.7734 3.0010 -21.5469
v  30.3072 3.0010 -23.1363
v  32.9661 3.0010 -21.8856
v  33.1336 3.0010 -22.2192
v  30.4307 3.0010 -23.4498
v  33.2758 3.0010 -22.5476
v  30.5189 3.0010 -23.7622
v  33.3945 3.0010 -22.8763
v  33.4917 3.0010 -23.2108
v  30.5718 3.0010 -24.0733
v  33.5673 3.0010 -23.5510
v  33.6213 3.0010 -23.8971
v  30.5894 3.0010 -24.3833
v  33.6536 3.0010 -24.2488
v  33.6644 3.0010 -24.6064
v  30.5739 3.0010 -24.7122
v  33.6266 3.0010 -25.2224
v  30.5272 3.0010 -25.0147
v  33.5132 3.0010 -25.8039
v  30.4495 3.0010 -25.2907
v  33.3242 3.0010 -26.3508
v  30.3406 3.0010 -25.5404
v  33.0595 3.0010 -26.8631
v  32.7192 3.0010 -27.3409
v  30.2006 3.0010 -25.7637
v  32.3033 3.0010 -27.7841
v  30.0295 3.0010 -25.9607
v  31.8212 3.0010 -28.1745
v  29.8310 3.0010 -26.1291
v  31.2825 3.0010 -28.4940
v  29.6087 3.0010 -26.2669
v  30.6870 3.0010 -28.7424
v  29.3627 3.0010 -26.3740
v  30.0347 3.0010 -28.9199
v  29.0930 3.0010 -26.4506
v  29.3258 3.0010 -29.0263
v  28.7996 3.0010 -26.4965
v  28.4824 3.0010 -26.5118
v  28.5601 3.0010 -29.0618
v  28.1682 3.0010 -26.4958
v  27.8558 3.0010 -29.0312
v  27.8762 3.0010 -26.4476
v  27.1917 3.0010 -28.9392
v  27.6064 3.0010 -26.3672
v  26.5679 3.0010 -28.7858
v  27.3587 3.0010 -26.2547
v  25.9843 3.0010 -28.5711
v  27.1332 3.0010 -26.1101
v  25.4410 3.0010 -28.2951
v  26.9299 3.0010 -25.9333
v  24.9379 3.0010 -27.9577
v  26.7512 3.0010 -25.7192
v  24.4876 3.0010 -27.5499
v  26.5996 3.0010 -25.4627
v  24.1025 3.0010 -27.0626
v  23.7826 3.0010 -26.4957
v  26.4751 3.0010 -25.1637
v  23.5280 3.0010 -25.8492
# 318 vertices

vn 0.0000 0.0000 -1.0000
vn 0.8445 0.0000 0.5356
vn 0.8545 0.0000 0.5195
vn 0.8242 0.0000 0.5662
vn 0.8043 0.0000 0.5942
vn 0.7847 0.0000 0.6198
vn 0.7657 0.0000 0.6432
vn 0.7435 0.0000 0.6687
vn 0.7199 0.0000 0.6941
vn 0.7024 0.0000 0.7117
vn 0.6913 0.0000 0.7226
vn 0.6836 0.0000 0.7299
vn 0.6779 0.0000 0.7352
vn 0.6769 0.0000 0.7361
vn 0.6839 0.0000 0.7296
vn 0.6962 0.0000 0.7178
vn 0.7114 0.0000 0.7028
vn 0.7305 0.0000 0.6829
vn 0.7552 0.0000 0.6555
vn 0.7831 0.0000 0.6219
vn 0.8088 0.0000 0.5881
vn 0.8327 0.0000 0.5538
vn 0.8571 0.0000 0.5151
vn 0.8817 0.0000 0.4718
vn 0.9061 0.0000 0.4232
vn 0.9295 0.0000 0.3687
vn 0.9509 0.0000 0.3095
vn 0.9688 0.0000 0.2480
vn 0.9826 0.0000 0.1856
vn 0.9924 0.0000 0.1230
vn 0.9981 0.0000 0.0610
vn 0.9999 0.0000 -0.0156
vn 0.9919 0.0000 -0.1266
vn 0.9657 0.0000 -0.2597
vn 0.9192 0.0000 -0.3939
vn 0.8536 0.0000 -0.5209
vn 0.7736 0.0000 -0.6337
vn 0.6809 0.0000 -0.7324
vn 0.5712 0.0000 -0.8208
vn 0.4486 0.0000 -0.8937
vn 0.3245 0.0000 -0.9459
vn 0.2059 0.0000 -0.9786
vn 0.0975 0.0000 -0.9952
vn 0.0014 0.0000 -1.0000
vn -0.0905 0.0000 -0.9959
vn -0.1882 0.0000 -0.9821
vn -0.2924 0.0000 -0.9563
vn -0.3998 0.0000 -0.9166
vn -0.5059 0.0000 -0.8626
vn -0.6157 0.0000 -0.7880
vn -0.7305 0.0000 -0.6830
vn -0.8303 0.0000 -0.5574
vn -0.9028 0.0000 -0.4300
vn -0.9507 0.0000 -0.3100
vn -0.9793 0.0000 -0.2026
vn -0.9883 0.0000 -0.1523
vn -0.0998 0.0000 0.9950
vn 0.9901 0.0000 0.1404
vn 0.9949 0.0000 0.1006
vn 0.9738 0.0000 0.2273
vn 0.9441 0.0000 0.3298
vn 0.8942 0.0000 0.4476
vn 0.8170 0.0000 0.5766
vn 0.7142 0.0000 0.7000
vn 0.5996 0.0000 0.8003
vn 0.4779 0.0000 0.8784
vn 0.3503 0.0000 0.9366
vn 0.2246 0.0000 0.9745
vn 0.1072 0.0000 0.9942
vn 0.0014 0.0000 1.0000
vn -0.1016 0.0000 0.9948
vn -0.2142 0.0000 0.9768
vn -0.3370 0.0000 0.9415
vn -0.4644 0.0000 0.8856
vn -0.5885 0.0000 0.8085
vn -0.7029 0.0000 0.7113
vn -0.8035 0.0000 0.5953
vn -0.8844 0.0000 0.4667
vn -0.9418 0.0000 0.3362
vn -0.9772 0.0000 0.2122
vn -0.9950 0.0000 0.1000
vn -1.0000 0.0000 -0.0048
vn -0.9937 0.0000 -0.1124
vn -0.9755 0.0000 -0.2201
vn -0.9476 0.0000 -0.3195
vn -0.9126 0.0000 -0.4089
vn -0.8732 0.0000 -0.4873
vn -0.8242 0.0000 -0.5662
vn -0.7739 0.0000 -0.6333
vn -0.7396 0.0000 -0.6731
vn -0.7171 0.0000 -0.6969
vn -0.7013 0.0000 -0.7128
vn -0.6897 0.0000 -0.7241
vn -0.6860 0.0000 -0.7276
vn -0.6971 0.0000 -0.7170
vn -0.7181 0.0000 -0.6959
vn -0.7434 0.0000 -0.6689
vn -0.7740 0.0000 -0.6331
vn -0.8116 0.0000 -0.5843
vn -0.8527 0.0000 -0.5224
vn -0.8892 0.0000 -0.4576
vn -0.9196 0.0000 -0.3930
vn -0.9458 0.0000 -0.3247
vn -0.9673 0.0000 -0.2537
vn -0.9835 0.0000 -0.1811
vn -0.9895 0.0000 -0.1445
vn 0.0000 0.0000 1.0000
vn 1.0000 0.0000 -0.0000
vn 0.0000 1.0000 -0.0000
vn 0.0000 -1.0000 -0.0000
vn 0.8342 0.0000 0.5515
vn 0.8140 0.0000 0.5808
vn 0.7943 0.0000 0.6075
vn 0.7750 0.0000 0.6319
vn 0.7563 0.0000 0.6542
vn 0.7090 0.0000 0.7052
vn 0.6958 0.0000 0.7182
vn 0.6868 0.0000 0.7268
vn 0.6803 0.0000 0.7329
vn 0.6754 0.0000 0.7374
vn 0.6783 0.0000 0.7348
vn 0.6894 0.0000 0.7244
vn 0.7029 0.0000 0.7112
vn 0.7197 0.0000 0.6942
vn 0.7411 0.0000 0.6714
vn 0.7689 0.0000 0.6393
vn 0.7968 0.0000 0.6042
vn 0.8204 0.0000 0.5718
vn 0.8446 0.0000 0.5354
vn 0.8691 0.0000 0.4945
vn 0.8937 0.0000 0.4487
vn 0.9177 0.0000 0.3973
vn 0.9405 0.0000 0.3398
vn 0.9603 0.0000 0.2790
vn 0.9762 0.0000 0.2168
vn 0.9880 0.0000 0.1541
vn 0.9958 0.0000 0.0917
vn 0.9995 0.0000 0.0302
vn 0.9981 0.0000 -0.0613
vn 0.9815 0.0000 -0.1915
vn 0.9451 0.0000 -0.3267
vn 0.8885 0.0000 -0.4590
vn 0.8145 0.0000 -0.5801
vn 0.7292 0.0000 -0.6843
vn 0.6294 0.0000 -0.7771
vn 0.5100 0.0000 -0.8602
vn 0.3850 0.0000 -0.9229
vn 0.2625 0.0000 -0.9649
vn 0.1485 0.0000 -0.9889
vn 0.0463 0.0000 -0.9989
vn -0.0435 0.0000 -0.9991
vn -0.1372 0.0000 -0.9905
vn -0.2387 0.0000 -0.9711
vn -0.3453 0.0000 -0.9385
vn -0.4529 0.0000 -0.8915
vn -0.5570 0.0000 -0.8305
vn -0.6712 0.0000 -0.7412
vn -0.7846 0.0000 -0.6200
vn -0.8709 0.0000 -0.4914
vn -0.9304 0.0000 -0.3665
vn -0.9676 0.0000 -0.2524
vn 0.9837 0.0000 0.1799
vn 0.9617 0.0000 0.2742
vn 0.9232 0.0000 0.3843
vn 0.8609 0.0000 0.5087
vn 0.7677 0.0000 0.6408
vn 0.6561 0.0000 0.7547
vn 0.5399 0.0000 0.8418
vn 0.4135 0.0000 0.9105
vn 0.2854 0.0000 0.9584
vn 0.1629 0.0000 0.9866
vn 0.0511 0.0000 0.9987
vn -0.0482 0.0000 0.9988
vn -0.1546 0.0000 0.9880
vn -0.2730 0.0000 0.9620
vn -0.3994 0.0000 0.9168
vn -0.5269 0.0000 0.8499
vn -0.6469 0.0000 0.7626
vn -0.7549 0.0000 0.6559
vn -0.8473 0.0000 0.5312
vn -0.9166 0.0000 0.3997
vn -0.9625 0.0000 0.2711
vn -0.9883 0.0000 0.1525
vn -0.9989 0.0000 0.0472
vn -0.9984 0.0000 -0.0568
vn -0.9858 0.0000 -0.1677
vn -0.9624 0.0000 -0.2718
vn -0.8928 0.0000 -0.4504
vn -0.8521 0.0000 -0.5234
vn -0.7943 0.0000 -0.6076
vn -0.7527 0.0000 -0.6584
vn -0.7262 0.0000 -0.6875
vn -0.7079 0.0000 -0.7063
vn -0.6947 0.0000 -0.7193
vn -0.6846 0.0000 -0.7289
vn -0.6874 0.0000 -0.7262
vn -0.7066 0.0000 -0.7076
vn -0.7294 0.0000 -0.6840
vn -0.7570 0.0000 -0.6534
vn -0.7905 0.0000 -0.6124
vn -0.8316 0.0000 -0.5554
vn -0.8725 0.0000 -0.4886
vn -0.9047 0.0000 -0.4260
vn -0.9332 0.0000 -0.3594
vn -0.9572 0.0000 -0.2895
vn -0.9761 0.0000 -0.2175
vn -0.9895 -0.0000 -0.1445
# 207 vertex normals

o TextPlus003
g TextPlus003
usemtl wire_092017054
s 1
f 1//1 2//1 3//1 
f 3//1 4//1 1//1 
s 4
f 5//2 6//2 2//3 
f 2//3 1//3 5//2 
f 7//4 8//4 6//2 
f 6//2 5//2 7//4 
f 9//5 10//5 8//4 
f 8//4 7//4 9//5 
f 11//6 12//6 10//5 
f 10//5 9//5 11//6 
f 13//7 14//7 12//6 
f 12//6 11//6 13//7 
f 15//8 16//8 14//7 
f 14//7 13//7 15//8 
f 17//9 18//9 16//8 
f 16//8 15//8 17//9 
f 19//10 20//10 18//9 
f 18//9 17//9 19//10 
f 21//11 22//11 20//10 
f 20//10 19//10 21//11 
f 23//12 24//12 22//11 
f 22//11 21//11 23//12 
f 25//13 26//13 24//12 
f 24//12 23//12 25//13 
f 27//14 28//14 26//13 
f 26//13 25//13 27//14 
f 29//15 30//15 28//14 
f 28//14 27//14 29//15 
f 31//16 32//16 30//15 
f 30//15 29//15 31//16 
f 33//17 34//17 32//16 
f 32//16 31//16 33//17 
f 35//18 36//18 34//17 
f 34//17 33//17 35//18 
f 37//19 38//19 36//18 
f 36//18 35//18 37//19 
f 39//20 40//20 38//19 
f 38//19 37//19 39//20 
f 41//21 42//21 40//20 
f 40//20 39//20 41//21 
f 43//22 44//22 42//21 
f 42//21 41//21 43//22 
f 45//23 46//23 44//22 
f 44//22 43//22 45//23 
f 47//24 48//24 46//23 
f 46//23 45//23 47//24 
f 49//25 50//25 48//24 
f 48//24 47//24 49//25 
f 51//26 52//26 50//25 
f 50//25 49//25 51//26 
f 53//27 54//27 52//26 
f 52//26 51//26 53//27 
f 55//28 56//28 54//27 
f 54//27 53//27 55//28 
f 57//29 58//29 56//28 
f 56//28 55//28 57//29 
f 59//30 60//30 58//29 
f 58//29 57//29 59//30 
f 61//31 62//31 60//30 
f 60//30 59//30 61//31 
f 63//32 64//32 62//31 
f 62//31 61//31 63//32 
f 65//33 66//33 64//32 
f 64//32 63//32 65//33 
f 67//34 68//34 66//33 
f 66//33 65//33 67//34 
f 69//35 70//35 68//34 
f 68//34 67//34 69//35 
f 71//36 72//36 70//35 
f 70//35 69//35 71//36 
f 73//37 74//37 72//36 
f 72//36 71//36 73//37 
f 75//38 76//38 74//37 
f 74//37 73//37 75//38 
f 77//39 78//39 76//38 
f 76//38 75//38 77//39 
f 79//40 80//40 78//39 
f 78//39 77//39 79//40 
f 81//41 82//41 80//40 
f 80//40 79//40 81//41 
f 83//42 84//42 82//41 
f 82//41 81//41 83//42 
f 85//43 86//43 84//42 
f 84//42 83//42 85//43 
f 87//44 88//44 86//43 
f 86//43 85//43 87//44 
f 89//45 90//45 88//44 
f 88//44 87//44 89//45 
f 91//46 92//46 90//45 
f 90//45 89//45 91//46 
f 93//47 94//47 92//46 
f 92//46 91//46 93//47 
f 95//48 96//48 94//47 
f 94//47 93//47 95//48 
f 97//49 98//49 96//48 
f 96//48 95//48 97//49 
f 99//50 100//50 98//49 
f 98//49 97//49 99//50 
f 101//51 102//51 100//50 
f 100//50 99//50 101//51 
f 103//52 104//52 102//51 
f 102//51 101//51 103//52 
f 105//53 106//53 104//52 
f 104//52 103//52 105//53 
f 107//54 108//54 106//53 
f 106//53 105//53 107//54 
f 109//55 110//55 108//54 
f 108//54 107//54 109//55 
f 111//56 112//56 110//55 
f 110//55 109//55 111//56 
s 2
f 113//57 114//57 112//57 
f 112//57 111//57 113//57 
s 4
f 115//58 116//58 114//59 
f 114//59 113//59 115//58 
f 117//60 118//60 116//58 
f 116//58 115//58 117//60 
f 119//61 120//61 118//60 
f 118//60 117//60 119//61 
f 121//62 122//62 120//61 
f 120//61 119//61 121//62 
f 123//63 124//63 122//62 
f 122//62 121//62 123//63 
f 125//64 126//64 124//63 
f 124//63 123//63 125//64 
f 127//65 128//65 126//64 
f 126//64 125//64 127//65 
f 129//66 130//66 128//65 
f 128//65 127//65 129//66 
f 131//67 132//67 130//66 
f 130//66 129//66 131//67 
f 133//68 134//68 132//67 
f 132//67 131//67 133//68 
f 135//69 136//69 134//68 
f 134//68 133//68 135//69 
f 137//70 138//70 136//69 
f 136//69 135//69 137//70 
f 139//71 140//71 138//70 
f 138//70 137//70 139//71 
f 141//72 142//72 140//71 
f 140//71 139//71 141//72 
f 143//73 144//73 142//72 
f 142//72 141//72 143//73 
f 145//74 146//74 144//73 
f 144//73 143//73 145//74 
f 147//75 148//75 146//74 
f 146//74 145//74 147//75 
f 149//76 150//76 148//75 
f 148//75 147//75 149//76 
f 151//77 152//77 150//76 
f 150//76 149//76 151//77 
f 153//78 154//78 152//77 
f 152//77 151//77 153//78 
f 155//79 156//79 154//78 
f 154//78 153//78 155//79 
f 157//80 158//80 156//79 
f 156//79 155//79 157//80 
f 159//81 160//81 158//80 
f 158//80 157//80 159//81 
f 161//82 162//82 160//81 
f 160//81 159//81 161//82 
f 163//83 164//83 162//82 
f 162//82 161//82 163//83 
f 165//84 166//84 164//83 
f 164//83 163//83 165//84 
f 167//85 168//85 166//84 
f 166//84 165//84 167//85 
f 169//86 170//86 168//85 
f 168//85 167//85 169//86 
f 171//87 172//87 170//86 
f 170//86 169//86 171//87 
f 173//88 174//88 172//87 
f 172//87 171//87 173//88 
f 175//89 176//89 174//88 
f 174//88 173//88 175//89 
f 177//90 178//90 176//89 
f 176//89 175//89 177//90 
f 179//91 180//91 178//90 
f 178//90 177//90 179//91 
f 181//92 182//92 180//91 
f 180//91 179//91 181//92 
f 183//93 184//93 182//92 
f 182//92 181//92 183//93 
f 185//94 186//94 184//93 
f 184//93 183//93 185//94 
f 187//95 188//95 186//94 
f 186//94 185//94 187//95 
f 189//96 190//96 188//95 
f 188//95 187//95 189//96 
f 191//97 192//97 190//96 
f 190//96 189//96 191//97 
f 193//98 194//98 192//97 
f 192//97 191//97 193//98 
f 195//99 196//99 194//98 
f 194//98 193//98 195//99 
f 197//100 198//100 196//99 
f 196//99 195//99 197//100 
f 199//101 200//101 198//100 
f 198//100 197//100 199//101 
f 201//102 202//102 200//101 
f 200//101 199//101 201//102 
f 203//103 204//103 202//102 
f 202//102 201//102 203//103 
f 205//104 206//104 204//103 
f 204//103 203//103 205//104 
f 207//105 208//105 206//104 
f 206//104 205//104 207//105 
f 209//106 210//106 208//105 
f 208//105 207//105 209//106 
s 2
f 211//107 212//107 210//107 
f 210//107 209//107 211//107 
s 4
f 4//108 3//108 212//108 
f 212//108 211//108 4//108 
s 512
f 213//109 214//109 215//109 
f 213//109 215//109 216//109 
f 213//109 216//109 217//109 
f 218//109 219//109 220//109 
f 221//109 218//109 220//109 
f 222//109 221//109 220//109 
f 223//109 222//109 220//109 
f 224//109 223//109 220//109 
f 225//109 224//109 220//109 
f 226//109 225//109 220//109 
f 227//109 226//109 220//109 
f 220//109 228//109 229//109 
f 227//109 220//109 229//109 
f 230//109 227//109 229//109 
f 230//109 229//109 231//109 
f 232//109 230//109 231//109 
f 232//109 231//109 233//109 
f 232//109 233//109 234//109 
f 232//109 234//109 235//109 
f 232//109 235//109 236//109 
f 237//109 232//109 236//109 
f 237//109 236//109 238//109 
f 237//109 238//109 239//109 
f 237//109 239//109 240//109 
f 241//109 237//109 240//109 
f 241//109 240//109 242//109 
f 241//109 242//109 243//109 
f 241//109 243//109 244//109 
f 245//109 241//109 244//109 
f 245//109 244//109 246//109 
f 247//109 245//109 246//109 
f 247//109 246//109 248//109 
f 247//109 248//109 249//109 
f 250//109 247//109 249//109 
f 250//109 249//109 251//109 
f 252//109 250//109 251//109 
f 252//109 251//109 253//109 
f 252//109 253//109 254//109 
f 255//109 252//109 254//109 
f 255//109 254//109 256//109 
f 257//109 255//109 256//109 
f 257//109 256//109 258//109 
f 257//109 258//109 259//109 
f 260//109 257//109 259//109 
f 260//109 259//109 261//109 
f 262//109 260//109 261//109 
f 262//109 261//109 263//109 
f 262//109 263//109 264//109 
f 265//109 262//109 264//109 
f 265//109 264//109 266//109 
f 267//109 265//109 266//109 
f 267//109 266//109 268//109 
f 267//109 268//109 269//109 
f 270//109 267//109 269//109 
f 270//109 269//109 271//109 
f 270//109 271//109 272//109 
f 273//109 270//109 272//109 
f 273//109 272//109 274//109 
f 273//109 274//109 275//109 
f 276//109 273//109 275//109 
f 276//109 275//109 277//109 
f 278//109 276//109 277//109 
f 278//109 277//109 279//109 
f 280//109 278//109 279//109 
f 280//109 279//109 281//109 
f 282//109 280//109 281//109 
f 282//109 281//109 283//109 
f 282//109 283//109 284//109 
f 285//109 282//109 284//109 
f 285//109 284//109 286//109 
f 287//109 285//109 286//109 
f 287//109 286//109 288//109 
f 289//109 287//109 288//109 
f 289//109 288//109 290//109 
f 291//109 289//109 290//109 
f 291//109 290//109 292//109 
f 293//109 291//109 292//109 
f 293//109 292//109 294//109 
f 295//109 293//109 294//109 
f 295//109 294//109 296//109 
f 297//109 295//109 296//109 
f 298//109 297//109 296//109 
f 298//109 296//109 299//109 
f 300//109 298//109 299//109 
f 300//109 299//109 301//109 
f 302//109 300//109 301//109 
f 302//109 301//109 303//109 
f 304//109 302//109 303//109 
f 304//109 303//109 305//109 
f 306//109 304//109 305//109 
f 306//109 305//109 307//109 
f 308//109 306//109 307//109 
f 308//109 307//109 309//109 
f 310//109 308//109 309//109 
f 310//109 309//109 311//109 
f 312//109 310//109 311//109 
f 312//109 311//109 313//109 
f 314//109 312//109 313//109 
f 314//109 313//109 315//109 
f 314//109 315//109 316//109 
f 317//109 314//109 316//109 
f 317//109 316//109 318//109 
f 217//109 317//109 318//109 
f 213//109 217//109 318//109 
f 1//110 4//110 211//110 
f 211//110 209//110 207//110 
f 211//110 207//110 205//110 
f 211//110 205//110 203//110 
f 211//110 203//110 201//110 
f 211//110 201//110 199//110 
f 211//110 199//110 197//110 
f 211//110 197//110 195//110 
f 211//110 195//110 193//110 
f 1//110 211//110 193//110 
f 1//110 193//110 191//110 
f 5//110 1//110 191//110 
f 5//110 191//110 189//110 
f 7//110 5//110 189//110 
f 9//110 7//110 189//110 
f 11//110 9//110 189//110 
f 13//110 11//110 189//110 
f 13//110 189//110 187//110 
f 15//110 13//110 187//110 
f 17//110 15//110 187//110 
f 19//110 17//110 187//110 
f 19//110 187//110 185//110 
f 21//110 19//110 185//110 
f 23//110 21//110 185//110 
f 25//110 23//110 185//110 
f 25//110 185//110 183//110 
f 27//110 25//110 183//110 
f 27//110 183//110 181//110 
f 29//110 27//110 181//110 
f 31//110 29//110 181//110 
f 31//110 181//110 179//110 
f 33//110 31//110 179//110 
f 33//110 179//110 177//110 
f 35//110 33//110 177//110 
f 37//110 35//110 177//110 
f 37//110 177//110 175//110 
f 39//110 37//110 175//110 
f 39//110 175//110 173//110 
f 41//110 39//110 173//110 
f 43//110 41//110 173//110 
f 43//110 173//110 171//110 
f 45//110 43//110 171//110 
f 45//110 171//110 169//110 
f 47//110 45//110 169//110 
f 49//110 47//110 169//110 
f 49//110 169//110 167//110 
f 51//110 49//110 167//110 
f 51//110 167//110 165//110 
f 53//110 51//110 165//110 
f 55//110 53//110 165//110 
f 55//110 165//110 163//110 
f 57//110 55//110 163//110 
f 59//110 57//110 163//110 
f 59//110 163//110 161//110 
f 61//110 59//110 161//110 
f 63//110 61//110 161//110 
f 63//110 161//110 159//110 
f 65//110 63//110 159//110 
f 65//110 159//110 157//110 
f 67//110 65//110 157//110 
f 67//110 157//110 155//110 
f 69//110 67//110 155//110 
f 69//110 155//110 153//110 
f 71//110 69//110 153//110 
f 73//110 71//110 153//110 
f 73//110 153//110 151//110 
f 75//110 73//110 151//110 
f 75//110 151//110 149//110 
f 77//110 75//110 149//110 
f 77//110 149//110 147//110 
f 79//110 77//110 147//110 
f 79//110 147//110 145//110 
f 81//110 79//110 145//110 
f 81//110 145//110 143//110 
f 83//110 81//110 143//110 
f 83//110 143//110 141//110 
f 85//110 83//110 141//110 
f 85//110 141//110 139//110 
f 85//110 139//110 137//110 
f 87//110 85//110 137//110 
f 87//110 137//110 135//110 
f 89//110 87//110 135//110 
f 89//110 135//110 133//110 
f 91//110 89//110 133//110 
f 91//110 133//110 131//110 
f 93//110 91//110 131//110 
f 93//110 131//110 129//110 
f 95//110 93//110 129//110 
f 95//110 129//110 127//110 
f 97//110 95//110 127//110 
f 97//110 127//110 125//110 
f 99//110 97//110 125//110 
f 99//110 125//110 123//110 
f 101//110 99//110 123//110 
f 101//110 123//110 121//110 
f 103//110 101//110 121//110 
f 105//110 103//110 121//110 
f 105//110 121//110 119//110 
f 107//110 105//110 119//110 
f 107//110 119//110 117//110 
f 109//110 107//110 117//110 
f 109//110 117//110 115//110 
f 109//110 115//110 113//110 
f 109//110 113//110 111//110 
s off
f 3//1 2//1 229//1 
f 229//1 228//1 3//1 
f 2//3 6//3 231//3 
f 231//3 229//3 2//3 
f 6//111 8//111 233//111 
f 233//111 231//111 6//111 
f 8//112 10//112 234//112 
f 234//112 233//112 8//112 
f 10//113 12//113 235//113 
f 235//113 234//113 10//113 
f 12//114 14//114 236//114 
f 236//114 235//114 12//114 
f 14//115 16//115 238//115 
f 238//115 236//115 14//115 
f 16//18 18//18 239//18 
f 239//18 238//18 16//18 
f 18//116 20//116 240//116 
f 240//116 239//116 18//116 
f 20//117 22//117 242//117 
f 242//117 240//117 20//117 
f 22//118 24//118 243//118 
f 243//118 242//118 22//118 
f 24//119 26//119 244//119 
f 244//119 243//119 24//119 
f 26//120 28//120 246//120 
f 246//120 244//120 26//120 
f 28//121 30//121 248//121 
f 248//121 246//121 28//121 
f 30//122 32//122 249//122 
f 249//122 248//122 30//122 
f 32//123 34//123 251//123 
f 251//123 249//123 32//123 
f 34//124 36//124 253//124 
f 253//124 251//124 34//124 
f 36//125 38//125 254//125 
f 254//125 253//125 36//125 
f 38//126 40//126 256//126 
f 256//126 254//126 38//126 
f 40//127 42//127 258//127 
f 258//127 256//127 40//127 
f 42//128 44//128 259//128 
f 259//128 258//128 42//128 
f 44//129 46//129 261//129 
f 261//129 259//129 44//129 
f 46//130 48//130 263//130 
f 263//130 261//130 46//130 
f 48//131 50//131 264//131 
f 264//131 263//131 48//131 
f 50//132 52//132 266//132 
f 266//132 264//132 50//132 
f 52//133 54//133 268//133 
f 268//133 266//133 52//133 
f 54//134 56//134 269//134 
f 269//134 268//134 54//134 
f 56//135 58//135 271//135 
f 271//135 269//135 56//135 
f 58//136 60//136 272//136 
f 272//136 271//136 58//136 
f 60//137 62//137 274//137 
f 274//137 272//137 60//137 
f 62//138 64//138 275//138 
f 275//138 274//138 62//138 
f 64//139 66//139 277//139 
f 277//139 275//139 64//139 
f 66//140 68//140 279//140 
f 279//140 277//140 66//140 
f 68//141 70//141 281//141 
f 281//141 279//141 68//141 
f 70//142 72//142 283//142 
f 283//142 281//142 70//142 
f 72//143 74//143 284//143 
f 284//143 283//143 72//143 
f 74//144 76//144 286//144 
f 286//144 284//144 74//144 
f 76//145 78//145 288//145 
f 288//145 286//145 76//145 
f 78//146 80//146 290//146 
f 290//146 288//146 78//146 
f 80//147 82//147 292//147 
f 292//147 290//147 80//147 
f 82//148 84//148 294//148 
f 294//148 292//148 82//148 
f 84//149 86//149 296//149 
f 296//149 294//149 84//149 
f 86//150 88//150 299//150 
f 299//150 296//150 86//150 
f 88//151 90//151 301//151 
f 301//151 299//151 88//151 
f 90//152 92//152 303//152 
f 303//152 301//152 90//152 
f 92//153 94//153 305//153 
f 305//153 303//153 92//153 
f 94//154 96//154 307//154 
f 307//154 305//154 94//154 
f 96//155 98//155 309//155 
f 309//155 307//155 96//155 
f 98//156 100//156 311//156 
f 311//156 309//156 98//156 
f 100//157 102//157 313//157 
f 313//157 311//157 100//157 
f 102//158 104//158 315//158 
f 315//158 313//158 102//158 
f 104//159 106//159 316//159 
f 316//159 315//159 104//159 
f 106//160 108//160 318//160 
f 318//160 316//160 106//160 
f 108//161 110//161 213//161 
f 213//161 318//161 108//161 
f 110//56 112//56 214//56 
f 214//56 213//56 110//56 
f 112//57 114//57 215//57 
f 215//57 214//57 112//57 
f 114//59 116//59 216//59 
f 216//59 215//59 114//59 
f 116//162 118//162 217//162 
f 217//162 216//162 116//162 
f 118//163 120//163 317//163 
f 317//163 217//163 118//163 
f 120//164 122//164 314//164 
f 314//164 317//164 120//164 
f 122//165 124//165 312//165 
f 312//165 314//165 122//165 
f 124//166 126//166 310//166 
f 310//166 312//166 124//166 
f 126//167 128//167 308//167 
f 308//167 310//167 126//167 
f 128//168 130//168 306//168 
f 306//168 308//168 128//168 
f 130//169 132//169 304//169 
f 304//169 306//169 130//169 
f 132//170 134//170 302//170 
f 302//170 304//170 132//170 
f 134//171 136//171 300//171 
f 300//171 302//171 134//171 
f 136//172 138//172 298//172 
f 298//172 300//172 136//172 
f 138//173 140//173 297//173 
f 297//173 298//173 138//173 
f 140//174 142//174 295//174 
f 295//174 297//174 140//174 
f 142//175 144//175 293//175 
f 293//175 295//175 142//175 
f 144//176 146//176 291//176 
f 291//176 293//176 144//176 
f 146//177 148//177 289//177 
f 289//177 291//177 146//177 
f 148//178 150//178 287//178 
f 287//178 289//178 148//178 
f 150//179 152//179 285//179 
f 285//179 287//179 150//179 
f 152//180 154//180 282//180 
f 282//180 285//180 152//180 
f 154//181 156//181 280//181 
f 280//181 282//181 154//181 
f 156//182 158//182 278//182 
f 278//182 280//182 156//182 
f 158//183 160//183 276//183 
f 276//183 278//183 158//183 
f 160//184 162//184 273//184 
f 273//184 276//184 160//184 
f 162//185 164//185 270//185 
f 270//185 273//185 162//185 
f 164//186 166//186 267//186 
f 267//186 270//186 164//186 
f 166//187 168//187 265//187 
f 265//187 267//187 166//187 
f 168//160 170//160 262//160 
f 262//160 265//160 168//160 
f 170//188 172//188 260//188 
f 260//188 262//188 170//188 
f 172//189 174//189 257//189 
f 257//189 260//189 172//189 
f 174//190 176//190 255//190 
f 255//190 257//190 174//190 
f 176//191 178//191 252//191 
f 252//191 255//191 176//191 
f 178//192 180//192 250//192 
f 250//192 252//192 178//192 
f 180//193 182//193 247//193 
f 247//193 250//193 180//193 
f 182//194 184//194 245//194 
f 245//194 247//194 182//194 
f 184//195 186//195 241//195 
f 241//195 245//195 184//195 
f 186//196 188//196 237//196 
f 237//196 241//196 186//196 
f 188//197 190//197 232//197 
f 232//197 237//197 188//197 
f 190//198 192//198 230//198 
f 230//198 232//198 190//198 
f 192//199 194//199 227//199 
f 227//199 230//199 192//199 
f 194//200 196//200 226//200 
f 226//200 227//200 194//200 
f 196//201 198//201 225//201 
f 225//201 226//201 196//201 
f 198//202 200//202 224//202 
f 224//202 225//202 198//202 
f 200//203 202//203 223//203 
f 223//203 224//203 200//203 
f 202//204 204//204 222//204 
f 222//204 223//204 202//204 
f 204//205 206//205 221//205 
f 221//205 222//205 204//205 
f 206//206 208//206 218//206 
f 218//206 221//206 206//206 
f 208//207 210//207 219//207 
f 219//106 218//106 208//106 
f 210//107 212//107 220//107 
f 220//107 219//107 210//107 
f 212//108 3//108 228//108 
f 228//108 220//108 212//108 
# 632 faces

