# 3ds Max Wavefront OBJ Exporter v0.99 - (c)2007 guruware
# File Created: 01.12.2025 15:38:00

mtllib 3.mtl

#
# object TextPlus001
#

v  -6.0052 0.0000 -4.5592
v  -6.0052 0.0010 -4.5592
v  -6.1152 0.0010 -5.2136
v  -6.1152 0.0000 -5.2136
v  -5.8284 0.0000 -3.9477
v  -5.8284 0.0010 -3.9477
v  -5.5848 0.0000 -3.3791
v  -5.5848 0.0010 -3.3791
v  -5.2744 0.0000 -2.8535
v  -5.2744 0.0010 -2.8535
v  -4.8972 0.0000 -2.3708
v  -4.8972 0.0010 -2.3708
v  -4.4531 0.0000 -1.9310
v  -4.4531 0.0010 -1.9310
v  -3.9550 0.0000 -1.5476
v  -3.9550 0.0010 -1.5476
v  -3.4155 0.0000 -1.2339
v  -3.4155 0.0010 -1.2339
v  -2.8348 0.0000 -0.9899
v  -2.8348 0.0010 -0.9899
v  -2.2128 0.0000 -0.8156
v  -2.2128 0.0010 -0.8156
v  -1.5495 0.0000 -0.7110
v  -1.5495 0.0010 -0.7110
v  -0.8449 0.0000 -0.6761
v  -0.8449 0.0010 -0.6761
v  -0.1005 0.0000 -0.7175
v  -0.1005 0.0010 -0.7175
v  0.6020 0.0000 -0.8415
v  0.6020 0.0010 -0.8415
v  1.2626 0.0000 -1.0482
v  1.2626 0.0010 -1.0482
v  1.8813 0.0000 -1.3376
v  1.8813 0.0010 -1.3376
v  2.4581 0.0000 -1.7097
v  2.4581 0.0010 -1.7097
v  2.9930 0.0000 -2.1644
v  2.9930 0.0010 -2.1644
v  3.4641 0.0000 -2.6778
v  3.4641 0.0010 -2.6778
v  3.8496 0.0000 -3.2259
v  3.8496 0.0010 -3.2259
v  4.1494 0.0000 -3.8086
v  4.1494 0.0010 -3.8086
v  4.3635 0.0000 -4.4259
v  4.3635 0.0010 -4.4259
v  4.4920 0.0000 -5.0778
v  4.4920 0.0010 -5.0778
v  4.5348 0.0000 -5.7644
v  4.5348 0.0010 -5.7644
v  4.5121 0.0000 -6.2377
v  4.5121 0.0010 -6.2377
v  4.4439 0.0000 -6.6873
v  4.4439 0.0010 -6.6873
v  4.3303 0.0000 -7.1132
v  4.3303 0.0010 -7.1132
v  4.1713 0.0000 -7.5154
v  4.1713 0.0010 -7.5154
v  3.9668 0.0000 -7.8938
v  3.9668 0.0010 -7.8938
v  3.7168 0.0000 -8.2486
v  3.7168 0.0010 -8.2486
v  3.4290 0.0000 -8.5711
v  3.4290 0.0010 -8.5711
v  3.1108 0.0000 -8.8529
v  3.1108 0.0010 -8.8529
v  2.7621 0.0000 -9.0940
v  2.7621 0.0010 -9.0940
v  2.3832 0.0000 -9.2943
v  2.3832 0.0010 -9.2943
v  1.9738 0.0000 -9.4538
v  1.9738 0.0010 -9.4538
v  1.5340 0.0000 -9.5726
v  1.5340 0.0010 -9.5726
v  2.2370 0.0000 -10.0155
v  2.2370 0.0010 -10.0155
v  2.8122 0.0000 -10.5057
v  2.8122 0.0010 -10.5057
v  3.2596 0.0000 -11.0432
v  3.2596 0.0010 -11.0432
v  3.5792 0.0000 -11.6282
v  3.5792 0.0010 -11.6282
v  3.7709 0.0000 -12.2605
v  3.7709 0.0010 -12.2605
v  3.8348 0.0000 -12.9402
v  3.8348 0.0010 -12.9402
v  3.8034 0.0000 -13.4273
v  3.8034 0.0010 -13.4273
v  3.7093 0.0000 -13.8974
v  3.7093 0.0010 -13.8974
v  3.5525 0.0000 -14.3505
v  3.5525 0.0010 -14.3505
v  3.3329 0.0000 -14.7866
v  3.3329 0.0010 -14.7866
v  3.0506 0.0000 -15.2057
v  3.0506 0.0010 -15.2057
v  2.7055 0.0000 -15.6078
v  2.7055 0.0010 -15.6078
v  2.2238 0.0000 -16.0488
v  2.2238 0.0010 -16.0488
v  1.6920 0.0000 -16.4096
v  1.6920 0.0010 -16.4096
v  1.1104 0.0000 -16.6903
v  1.1104 0.0010 -16.6903
v  0.4788 0.0000 -16.8908
v  0.4788 0.0010 -16.8908
v  -0.2028 0.0000 -17.0110
v  -0.2028 0.0010 -17.0110
v  -0.9343 0.0000 -17.0511
v  -0.9343 0.0010 -17.0511
v  -1.3695 0.0000 -17.0372
v  -1.3695 0.0010 -17.0372
v  -1.7903 0.0000 -16.9955
v  -1.7903 0.0010 -16.9955
v  -2.1968 0.0000 -16.9259
v  -2.1968 0.0010 -16.9259
v  -2.5889 0.0000 -16.8285
v  -2.5889 0.0010 -16.8285
v  -2.9668 0.0000 -16.7032
v  -2.9668 0.0010 -16.7032
v  -3.3302 0.0000 -16.5502
v  -3.3302 0.0010 -16.5502
v  -3.6735 0.0000 -16.3728
v  -3.6735 0.0010 -16.3728
v  -3.9905 0.0000 -16.1746
v  -3.9905 0.0010 -16.1746
v  -4.2813 0.0000 -15.9556
v  -4.2813 0.0010 -15.9556
v  -4.5460 0.0000 -15.7158
v  -4.5460 0.0010 -15.7158
v  -4.7844 0.0000 -15.4552
v  -4.7844 0.0010 -15.4552
v  -4.9966 0.0000 -15.1738
v  -4.9966 0.0010 -15.1738
v  -5.1874 0.0000 -14.8656
v  -5.1874 0.0010 -14.8656
v  -5.3615 0.0000 -14.5248
v  -5.3615 0.0010 -14.5248
v  -5.5188 0.0000 -14.1511
v  -5.5188 0.0010 -14.1511
v  -5.6593 0.0000 -13.7448
v  -5.6593 0.0010 -13.7448
v  -5.7831 0.0000 -13.3057
v  -5.7831 0.0010 -13.3057
v  -5.8902 0.0000 -12.8340
v  -5.8902 0.0010 -12.8340
v  -3.0652 0.0000 -12.3511
v  -3.0652 0.0010 -12.3511
v  -3.0124 0.0000 -12.6882
v  -3.0124 0.0010 -12.6882
v  -2.9351 0.0000 -12.9971
v  -2.9351 0.0010 -12.9971
v  -2.8331 0.0000 -13.2781
v  -2.8331 0.0010 -13.2781
v  -2.7066 0.0000 -13.5310
v  -2.7066 0.0010 -13.5310
v  -2.5555 0.0000 -13.7559
v  -2.5555 0.0010 -13.7559
v  -2.3798 0.0000 -13.9527
v  -2.3798 0.0010 -13.9527
v  -2.1854 0.0000 -14.1203
v  -2.1854 0.0010 -14.1203
v  -1.9781 0.0000 -14.2574
v  -1.9781 0.0010 -14.2574
v  -1.7579 0.0000 -14.3640
v  -1.7579 0.0010 -14.3640
v  -1.5248 0.0000 -14.4402
v  -1.5248 0.0010 -14.4402
v  -1.2788 0.0000 -14.4859
v  -1.2788 0.0010 -14.4859
v  -1.0199 0.0000 -14.5011
v  -1.0199 0.0010 -14.5011
v  -0.7598 0.0000 -14.4878
v  -0.7598 0.0010 -14.4878
v  -0.5175 0.0000 -14.4479
v  -0.5175 0.0010 -14.4479
v  -0.2930 0.0000 -14.3813
v  -0.2930 0.0010 -14.3813
v  -0.0864 0.0000 -14.2880
v  -0.0864 0.0010 -14.2880
v  0.1025 0.0000 -14.1682
v  0.1025 0.0010 -14.1682
v  0.2735 0.0000 -14.0216
v  0.2735 0.0010 -14.0216
v  0.4221 0.0000 -13.8527
v  0.4221 0.0010 -13.8527
v  0.5437 0.0000 -13.6657
v  0.5437 0.0010 -13.6657
v  0.6382 0.0000 -13.4605
v  0.6382 0.0010 -13.4605
v  0.7058 0.0000 -13.2371
v  0.7058 0.0010 -13.2371
v  0.7463 0.0000 -12.9956
v  0.7463 0.0010 -12.9956
v  0.7598 0.0000 -12.7359
v  0.7598 0.0010 -12.7359
v  0.7414 0.0000 -12.4303
v  0.7414 0.0010 -12.4303
v  0.6862 0.0000 -12.1456
v  0.6862 0.0010 -12.1456
v  0.5942 0.0000 -11.8818
v  0.5942 0.0010 -11.8818
v  0.4654 0.0000 -11.6389
v  0.4654 0.0010 -11.6389
v  0.2999 0.0000 -11.4168
v  0.2999 0.0010 -11.4168
v  0.0975 0.0000 -11.2156
v  0.0975 0.0010 -11.2156
v  -0.1398 0.0000 -11.0416
v  -0.1398 0.0010 -11.0416
v  -0.4103 0.0000 -10.9013
v  -0.4103 0.0010 -10.9013
v  -0.7138 0.0000 -10.7946
v  -0.7138 0.0010 -10.7946
v  -1.0504 0.0000 -10.7215
v  -1.0504 0.0010 -10.7215
v  -1.4202 0.0000 -10.6820
v  -1.4202 0.0010 -10.6820
v  -1.8230 0.0000 -10.6761
v  -1.8230 0.0010 -10.6761
v  -2.1652 0.0000 -8.1965
v  -2.1652 0.0010 -8.1965
v  -1.8985 0.0000 -8.2666
v  -1.8985 0.0010 -8.2666
v  -1.6446 0.0000 -8.3241
v  -1.6446 0.0010 -8.3241
v  -1.4034 0.0000 -8.3687
v  -1.4034 0.0010 -8.3687
v  -1.1749 0.0000 -8.4006
v  -1.1749 0.0010 -8.4006
v  -0.9592 0.0000 -8.4198
v  -0.9592 0.0010 -8.4198
v  -0.7562 0.0000 -8.4261
v  -0.7562 0.0010 -8.4261
v  -0.4652 0.0000 -8.4072
v  -0.4652 0.0010 -8.4072
v  -0.1894 0.0000 -8.3506
v  -0.1894 0.0010 -8.3506
v  0.0712 0.0000 -8.2561
v  0.0712 0.0010 -8.2561
v  0.3167 0.0000 -8.1239
v  0.3167 0.0010 -8.1239
v  0.5470 0.0000 -7.9539
v  0.5470 0.0010 -7.9539
v  0.7621 0.0000 -7.7461
v  0.7621 0.0010 -7.7461
v  0.9524 0.0000 -7.5060
v  0.9524 0.0010 -7.5060
v  1.1081 0.0000 -7.2390
v  1.1081 0.0010 -7.2390
v  1.2291 0.0000 -6.9453
v  1.2291 0.0010 -6.9453
v  1.3156 0.0000 -6.6247
v  1.3156 0.0010 -6.6247
v  1.3675 0.0000 -6.2773
v  1.3675 0.0010 -6.2773
v  1.3848 0.0000 -5.9031
v  1.3848 0.0010 -5.9031
v  1.3667 0.0000 -5.5075
v  1.3667 0.0010 -5.5075
v  1.3125 0.0000 -5.1399
v  1.3125 0.0010 -5.1399
v  1.2222 0.0000 -4.8004
v  1.2222 0.0010 -4.8004
v  1.0957 0.0000 -4.4889
v  1.0957 0.0010 -4.4889
v  0.9331 0.0000 -4.2055
v  0.9331 0.0010 -4.2055
v  0.7344 0.0000 -3.9502
v  0.7344 0.0010 -3.9502
v  0.5093 0.0000 -3.7289
v  0.5093 0.0010 -3.7289
v  0.2674 0.0000 -3.5479
v  0.2674 0.0010 -3.5479
v  0.0089 0.0000 -3.4071
v  0.0089 0.0010 -3.4071
v  -0.2663 0.0000 -3.3066
v  -0.2663 0.0010 -3.3066
v  -0.5582 0.0000 -3.2463
v  -0.5582 0.0010 -3.2463
v  -0.8668 0.0000 -3.2261
v  -0.8668 0.0010 -3.2261
v  -1.1545 0.0000 -3.2429
v  -1.1545 0.0010 -3.2429
v  -1.4277 0.0000 -3.2932
v  -1.4277 0.0010 -3.2932
v  -1.6864 0.0000 -3.3771
v  -1.6864 0.0010 -3.3771
v  -1.9305 0.0000 -3.4945
v  -1.9305 0.0010 -3.4945
v  -2.1600 0.0000 -3.6455
v  -2.1600 0.0010 -3.6455
v  -2.3750 0.0000 -3.8300
v  -2.3750 0.0010 -3.8300
v  -2.5693 0.0000 -4.0463
v  -2.5693 0.0010 -4.0463
v  -2.7369 0.0000 -4.2925
v  -2.7369 0.0010 -4.2925
v  -2.8778 0.0000 -4.5685
v  -2.8778 0.0010 -4.5685
v  -2.9920 0.0000 -4.8745
v  -2.9920 0.0010 -4.8745
v  -3.0794 0.0000 -5.2104
v  -3.0794 0.0010 -5.2104
v  -3.1402 0.0000 -5.5761
v  -3.1402 0.0010 -5.5761
v  -5.7831 3.0010 -13.3057
v  -5.8902 3.0010 -12.8340
v  -3.0652 3.0010 -12.3511
v  -3.0124 3.0010 -12.6882
v  -1.8230 3.0010 -10.6761
v  -2.1652 3.0010 -8.1965
v  -1.8985 3.0010 -8.2666
v  -1.6446 3.0010 -8.3241
v  -1.4034 3.0010 -8.3687
v  -1.4202 3.0010 -10.6820
v  -1.1749 3.0010 -8.4006
v  -1.0504 3.0010 -10.7215
v  -0.9592 3.0010 -8.4198
v  -0.7562 3.0010 -8.4261
v  -0.7138 3.0010 -10.7946
v  -0.4652 3.0010 -8.4072
v  -0.4103 3.0010 -10.9013
v  -0.1894 3.0010 -8.3506
v  -0.1398 3.0010 -11.0416
v  0.0712 3.0010 -8.2561
v  0.3167 3.0010 -8.1239
v  -3.1402 3.0010 -5.5761
v  -6.1152 3.0010 -5.2136
v  -6.0052 3.0010 -4.5592
v  -3.0794 3.0010 -5.2104
v  -5.8284 3.0010 -3.9477
v  -2.9920 3.0010 -4.8745
v  -5.5848 3.0010 -3.3791
v  -2.8778 3.0010 -4.5685
v  -5.2744 3.0010 -2.8535
v  -2.7369 3.0010 -4.2925
v  -4.8972 3.0010 -2.3708
v  -2.5693 3.0010 -4.0463
v  -4.4531 3.0010 -1.9310
v  -2.3750 3.0010 -3.8300
v  -3.9550 3.0010 -1.5476
v  -2.1600 3.0010 -3.6455
v  -3.4155 3.0010 -1.2339
v  -1.9305 3.0010 -3.4945
v  -2.8348 3.0010 -0.9899
v  -1.6864 3.0010 -3.3771
v  -2.2128 3.0010 -0.8156
v  -1.4277 3.0010 -3.2932
v  -1.5495 3.0010 -0.7110
v  -1.1545 3.0010 -3.2429
v  -0.8449 3.0010 -0.6761
v  -0.8668 3.0010 -3.2261
v  -0.1005 3.0010 -0.7175
v  -0.5582 3.0010 -3.2463
v  0.6020 3.0010 -0.8415
v  -0.2663 3.0010 -3.3066
v  0.0089 3.0010 -3.4071
v  1.2626 3.0010 -1.0482
v  0.2674 3.0010 -3.5479
v  1.8813 3.0010 -1.3376
v  0.5093 3.0010 -3.7289
v  2.4581 3.0010 -1.7097
v  0.7344 3.0010 -3.9502
v  2.9930 3.0010 -2.1644
v  0.9331 3.0010 -4.2055
v  3.4641 3.0010 -2.6778
v  1.0957 3.0010 -4.4889
v  3.8496 3.0010 -3.2259
v  1.2222 3.0010 -4.8004
v  4.1494 3.0010 -3.8086
v  4.3635 3.0010 -4.4259
v  1.3125 3.0010 -5.1399
v  4.4920 3.0010 -5.0778
v  1.3667 3.0010 -5.5075
v  4.5348 3.0010 -5.7644
v  1.3848 3.0010 -5.9031
v  4.5121 3.0010 -6.2377
v  1.3675 3.0010 -6.2773
v  4.4439 3.0010 -6.6873
v  4.3303 3.0010 -7.1132
v  1.3156 3.0010 -6.6247
v  4.1713 3.0010 -7.5154
v  3.9668 3.0010 -7.8938
v  1.2291 3.0010 -6.9453
v  3.7168 3.0010 -8.2486
v  3.4290 3.0010 -8.5711
v  1.1081 3.0010 -7.2390
v  3.1108 3.0010 -8.8529
v  2.7621 3.0010 -9.0940
v  0.9524 3.0010 -7.5060
v  2.3832 3.0010 -9.2943
v  1.9738 3.0010 -9.4538
v  0.7621 3.0010 -7.7461
v  1.5340 3.0010 -9.5726
v  0.5470 3.0010 -7.9539
v  0.0975 3.0010 -11.2156
v  0.2999 3.0010 -11.4168
v  0.4654 3.0010 -11.6389
v  2.2370 3.0010 -10.0155
v  0.5942 3.0010 -11.8818
v  2.8122 3.0010 -10.5057
v  0.6862 3.0010 -12.1456
v  3.2596 3.0010 -11.0432
v  0.7414 3.0010 -12.4303
v  3.5792 3.0010 -11.6282
v  0.7598 3.0010 -12.7359
v  3.7709 3.0010 -12.2605
v  0.7463 3.0010 -12.9956
v  3.8348 3.0010 -12.9402
v  3.8034 3.0010 -13.4273
v  0.7058 3.0010 -13.2371
v  3.7093 3.0010 -13.8974
v  3.5525 3.0010 -14.3505
v  0.6382 3.0010 -13.4605
v  3.3329 3.0010 -14.7866
v  0.5437 3.0010 -13.6657
v  3.0506 3.0010 -15.2057
v  0.4221 3.0010 -13.8527
v  2.7055 3.0010 -15.6078
v  0.2735 3.0010 -14.0216
v  2.2238 3.0010 -16.0488
v  0.1025 3.0010 -14.1682
v  1.6920 3.0010 -16.4096
v  -0.0864 3.0010 -14.2880
v  1.1104 3.0010 -16.6903
v  -0.2930 3.0010 -14.3813
v  0.4788 3.0010 -16.8908
v  -0.5175 3.0010 -14.4479
v  -0.2028 3.0010 -17.0110
v  -0.7598 3.0010 -14.4878
v  -1.0199 3.0010 -14.5011
v  -0.9343 3.0010 -17.0511
v  -1.3695 3.0010 -17.0372
v  -1.2788 3.0010 -14.4859
v  -1.7903 3.0010 -16.9955
v  -1.5248 3.0010 -14.4402
v  -2.1968 3.0010 -16.9259
v  -1.7579 3.0010 -14.3640
v  -2.5889 3.0010 -16.8285
v  -2.9668 3.0010 -16.7032
v  -1.9781 3.0010 -14.2574
v  -3.3302 3.0010 -16.5502
v  -2.1854 3.0010 -14.1203
v  -3.6735 3.0010 -16.3728
v  -3.9905 3.0010 -16.1746
v  -2.3798 3.0010 -13.9527
v  -4.2813 3.0010 -15.9556
v  -2.5555 3.0010 -13.7559
v  -4.5460 3.0010 -15.7158
v  -4.7844 3.0010 -15.4552
v  -4.9966 3.0010 -15.1738
v  -2.7066 3.0010 -13.5310
v  -5.1874 3.0010 -14.8656
v  -2.8331 3.0010 -13.2781
v  -5.3615 3.0010 -14.5248
v  -5.5188 3.0010 -14.1511
v  -2.9351 3.0010 -12.9971
v  -5.6593 3.0010 -13.7448
# 459 vertices

vn -0.9750 0.0000 0.2221
vn -0.9862 0.0000 0.1657
vn -0.9417 0.0000 0.3364
vn -0.8920 0.0000 0.4521
vn -0.8262 0.0000 0.5633
vn -0.7473 0.0000 0.6645
vn -0.6581 0.0000 0.7529
vn -0.5575 0.0000 0.8302
vn -0.4460 0.0000 0.8950
vn -0.3292 0.0000 0.9443
vn -0.2131 0.0000 0.9770
vn -0.1027 0.0000 0.9947
vn 0.0030 0.0000 1.0000
vn 0.1149 0.0000 0.9934
vn 0.2367 0.0000 0.9716
vn 0.3620 0.0000 0.9322
vn 0.4840 0.0000 0.8751
vn 0.5962 0.0000 0.8028
vn 0.6936 0.0000 0.7204
vn 0.7790 0.0000 0.6270
vn 0.8556 0.0000 0.5176
vn 0.9193 0.0000 0.3936
vn 0.9653 0.0000 0.2612
vn 0.9918 0.0000 0.1281
vn 1.0000 0.0000 0.0072
vn 0.9951 0.0000 -0.0991
vn 0.9789 0.0000 -0.2041
vn 0.9497 0.0000 -0.3133
vn 0.9065 0.0000 -0.4223
vn 0.8501 0.0000 -0.5266
vn 0.7831 0.0000 -0.6219
vn 0.7057 0.0000 -0.7085
vn 0.6169 0.0000 -0.7870
vn 0.5189 0.0000 -0.8548
vn 0.4159 0.0000 -0.9094
vn 0.3124 0.0000 -0.9499
vn 0.2608 0.0000 -0.9654
vn 0.5923 0.0000 0.8057
vn 0.5330 0.0000 0.8461
vn 0.7112 0.0000 0.7030
vn 0.8270 0.0000 0.5622
vn 0.9221 0.0000 0.3868
vn 0.9812 0.0000 0.1929
vn 0.9999 0.0000 0.0147
vn 0.9914 0.0000 -0.1306
vn 0.9650 0.0000 -0.2623
vn 0.9211 0.0000 -0.3893
vn 0.8630 0.0000 -0.5052
vn 0.7955 0.0000 -0.6060
vn 0.7184 0.0000 -0.6957
vn 0.6200 0.0000 -0.7846
vn 0.4994 0.0000 -0.8664
vn 0.3695 0.0000 -0.9292
vn 0.2387 0.0000 -0.9711
vn 0.1145 0.0000 -0.9934
vn 0.0114 0.0000 -0.9999
vn -0.0654 0.0000 -0.9979
vn -0.1338 0.0000 -0.9910
vn -0.2050 0.0000 -0.9788
vn -0.2781 0.0000 -0.9606
vn -0.3517 0.0000 -0.9361
vn -0.4240 0.0000 -0.9057
vn -0.4950 0.0000 -0.8689
vn -0.5663 0.0000 -0.8242
vn -0.6372 0.0000 -0.7707
vn -0.7054 0.0000 -0.7088
vn -0.7689 0.0000 -0.6393
vn -0.8252 0.0000 -0.5649
vn -0.8712 0.0000 -0.4910
vn -0.9068 0.0000 -0.4217
vn -0.9339 0.0000 -0.3577
vn -0.9542 0.0000 -0.2993
vn -0.9692 0.0000 -0.2464
vn -0.9752 0.0000 -0.2213
vn -0.1685 0.0000 0.9857
vn 0.9800 0.0000 0.1990
vn 0.9880 0.0000 0.1547
vn 0.9563 0.0000 0.2924
vn 0.9187 0.0000 0.3949
vn 0.8640 0.0000 0.5036
vn 0.7899 0.0000 0.6132
vn 0.7010 0.0000 0.7132
vn 0.6035 0.0000 0.7974
vn 0.4948 0.0000 0.8690
vn 0.3741 0.0000 0.9274
vn 0.2472 0.0000 0.9690
vn 0.1209 0.0000 0.9927
vn 0.0038 0.0000 1.0000
vn -0.1071 0.0000 0.9942
vn -0.2240 0.0000 0.9746
vn -0.3486 0.0000 0.9373
vn -0.4748 0.0000 0.8801
vn -0.5948 0.0000 0.8039
vn -0.7024 0.0000 0.7117
vn -0.7967 0.0000 0.6043
vn -0.8756 0.0000 0.4830
vn -0.9349 0.0000 0.3548
vn -0.9737 0.0000 0.2279
vn -0.9941 0.0000 0.1089
vn -1.0000 0.0000 -0.0041
vn -0.9921 0.0000 -0.1255
vn -0.9655 0.0000 -0.2604
vn -0.9165 0.0000 -0.3999
vn -0.8451 0.0000 -0.5346
vn -0.7554 0.0000 -0.6552
vn -0.6499 0.0000 -0.7600
vn -0.5274 0.0000 -0.8496
vn -0.3971 0.0000 -0.9178
vn -0.2725 0.0000 -0.9622
vn -0.1594 0.0000 -0.9872
vn -0.0604 0.0000 -0.9982
vn -0.0146 0.0000 -0.9999
vn -0.9906 0.0000 -0.1367
vn 0.2376 0.0000 0.9714
vn 0.2545 0.0000 0.9671
vn 0.2014 0.0000 0.9795
vn 0.1602 0.0000 0.9871
vn 0.1134 0.0000 0.9936
vn 0.0599 0.0000 0.9982
vn -0.0167 0.0000 0.9999
vn -0.1333 0.0000 0.9911
vn -0.2717 0.0000 0.9624
vn -0.4086 0.0000 0.9127
vn -0.5354 0.0000 0.8446
vn -0.6457 0.0000 0.7636
vn -0.7409 0.0000 0.6716
vn -0.8259 0.0000 0.5638
vn -0.8963 0.0000 0.4435
vn -0.9469 0.0000 0.3214
vn -0.9789 0.0000 0.2044
vn -0.9953 0.0000 0.0971
vn -1.0000 0.0000 0.0003
vn -0.9954 0.0000 -0.0959
vn -0.9794 0.0000 -0.2018
vn -0.9483 0.0000 -0.3173
vn -0.8990 0.0000 -0.4379
vn -0.8303 0.0000 -0.5573
vn -0.7467 0.0000 -0.6652
vn -0.6515 0.0000 -0.7586
vn -0.5401 0.0000 -0.8416
vn -0.4119 0.0000 -0.9112
vn -0.2735 0.0000 -0.9619
vn -0.1341 0.0000 -0.9910
vn -0.0034 0.0000 -1.0000
vn 0.1199 0.0000 -0.9928
vn 0.2453 0.0000 -0.9694
vn 0.3718 0.0000 -0.9283
vn 0.4926 0.0000 -0.8702
vn 0.6017 0.0000 -0.7987
vn 0.6990 0.0000 -0.7151
vn 0.7870 0.0000 -0.6170
vn 0.8603 0.0000 -0.5097
vn 0.9153 0.0000 -0.4028
vn 0.9536 0.0000 -0.3012
vn 0.9781 0.0000 -0.2081
vn 0.9865 0.0000 -0.1638
vn -0.1210 0.0000 -0.9927
vn 0.0000 1.0000 -0.0000
vn 0.0000 -1.0000 -0.0000
vn -0.9607 0.0000 0.2777
vn -0.9192 0.0000 0.3938
vn -0.8611 0.0000 0.5085
vn -0.7879 0.0000 0.6158
vn -0.7037 0.0000 0.7105
vn -0.6100 0.0000 0.7924
vn -0.5027 0.0000 0.8644
vn -0.3874 0.0000 0.9219
vn -0.2698 0.0000 0.9629
vn -0.1557 0.0000 0.9878
vn -0.0494 0.0000 0.9988
vn 0.0554 0.0000 0.9985
vn 0.1739 0.0000 0.9848
vn 0.2986 0.0000 0.9544
vn 0.4237 0.0000 0.9058
vn 0.5421 0.0000 0.8403
vn 0.6477 0.0000 0.7619
vn 0.7368 0.0000 0.6761
vn 0.8180 0.0000 0.5753
vn 0.8892 0.0000 0.4575
vn 0.9448 0.0000 0.3277
vn 0.9811 0.0000 0.1934
vn 0.9981 0.0000 0.0623
vn 0.9988 0.0000 -0.0480
vn 0.9887 0.0000 -0.1499
vn 0.9662 0.0000 -0.2577
vn 0.9299 0.0000 -0.3678
vn 0.8798 0.0000 -0.4754
vn 0.8175 0.0000 -0.5759
vn 0.7461 0.0000 -0.6659
vn 0.6629 0.0000 -0.7487
vn 0.5687 0.0000 -0.8225
vn 0.4673 0.0000 -0.8841
vn 0.3631 0.0000 -0.9317
vn 0.6486 0.0000 0.7611
vn 0.7686 0.0000 0.6397
vn 0.8776 0.0000 0.4794
vn 0.9570 0.0000 0.2902
vn 0.9956 0.0000 0.0936
vn 0.9979 0.0000 -0.0643
vn 0.9805 0.0000 -0.1963
vn 0.9450 0.0000 -0.3271
vn 0.8932 0.0000 -0.4497
vn 0.8294 0.0000 -0.5587
vn 0.7589 0.0000 -0.6512
vn 0.6752 0.0000 -0.7376
vn 0.5615 0.0000 -0.8274
vn 0.4346 0.0000 -0.9006
vn 0.3025 0.0000 -0.9531
vn 0.1738 0.0000 -0.9848
vn 0.0547 0.0000 -0.9985
vn -0.0320 0.0000 -0.9995
vn -0.0987 0.0000 -0.9951
vn -0.1687 0.0000 -0.9857
vn -0.2411 0.0000 -0.9705
vn -0.3147 0.0000 -0.9492
vn -0.3881 0.0000 -0.9216
vn -0.4591 0.0000 -0.8884
vn -0.5301 0.0000 -0.8479
vn -0.6015 0.0000 -0.7988
vn -0.6715 0.0000 -0.7410
vn -0.7378 0.0000 -0.6751
vn -0.7984 0.0000 -0.6022
vn -0.8502 0.0000 -0.5264
vn -0.8906 0.0000 -0.4547
vn -0.9216 0.0000 -0.3880
vn -0.9451 0.0000 -0.3269
vn -0.9625 0.0000 -0.2714
vn 0.9701 0.0000 0.2429
vn 0.9400 0.0000 0.3411
vn 0.8943 0.0000 0.4474
vn 0.8300 0.0000 0.5577
vn 0.7461 0.0000 0.6659
vn 0.6529 0.0000 0.7574
vn 0.5516 0.0000 0.8341
vn 0.4359 0.0000 0.9000
vn 0.3106 0.0000 0.9505
vn 0.1826 0.0000 0.9832
vn 0.0587 0.0000 0.9983
vn -0.0511 0.0000 0.9987
vn -0.1627 0.0000 0.9867
vn -0.2844 0.0000 0.9587
vn -0.4113 0.0000 0.9115
vn -0.5359 0.0000 0.8443
vn -0.6506 0.0000 0.7594
vn -0.7508 0.0000 0.6605
vn -0.8385 0.0000 0.5450
vn -0.9082 0.0000 0.4185
vn -0.9572 0.0000 0.2894
vn -0.9862 0.0000 0.1655
vn -0.9986 0.0000 0.0520
vn -0.9982 0.0000 -0.0601
vn -0.9817 0.0000 -0.1903
vn -0.9443 0.0000 -0.3292
vn -0.8835 0.0000 -0.4683
vn -0.8017 0.0000 -0.5977
vn -0.7050 0.0000 -0.7092
vn -0.5912 0.0000 -0.8065
vn -0.4606 0.0000 -0.8876
vn -0.3317 0.0000 -0.9434
vn -0.2122 0.0000 -0.9772
vn -0.1062 0.0000 -0.9943
vn 0.2206 0.0000 0.9754
vn 0.1821 0.0000 0.9833
vn 0.1383 0.0000 0.9904
vn 0.0884 0.0000 0.9961
vn 0.0314 0.0000 0.9995
vn -0.0648 0.0000 0.9979
vn -0.2013 0.0000 0.9795
vn -0.3407 0.0000 0.9402
vn -0.4743 0.0000 0.8804
vn -0.5939 0.0000 0.8045
vn -0.6947 0.0000 0.7193
vn -0.7838 0.0000 0.6211
vn -0.8638 0.0000 0.5038
vn -0.9245 0.0000 0.3811
vn -0.9655 0.0000 0.2605
vn -0.9890 0.0000 0.1477
vn -0.9989 0.0000 0.0462
vn -0.9990 0.0000 -0.0456
vn -0.9893 0.0000 -0.1459
vn -0.9664 0.0000 -0.2571
vn -0.9265 0.0000 -0.3762
vn -0.8674 0.0000 -0.4976
vn -0.7892 0.0000 -0.6142
vn -0.7009 0.0000 -0.7133
vn -0.5992 0.0000 -0.8006
vn -0.4783 0.0000 -0.8782
vn -0.3432 0.0000 -0.9393
vn -0.2024 0.0000 -0.9793
vn -0.0650 0.0000 -0.9979
vn 0.0582 0.0000 -0.9983
vn 0.1812 0.0000 -0.9835
vn 0.3085 0.0000 -0.9512
vn 0.4335 0.0000 -0.9011
vn 0.5495 0.0000 -0.8355
vn 0.6513 0.0000 -0.7588
vn 0.7438 0.0000 -0.6684
vn 0.8266 0.0000 -0.5628
vn 0.8907 0.0000 -0.4546
vn 0.9369 0.0000 -0.3496
vn 0.9677 0.0000 -0.2520
# 301 vertex normals

o TextPlus001
g TextPlus001
usemtl wire_125040136
s 1
f 1//1 2//1 3//2 
f 3//2 4//2 1//1 
s 3
f 5//3 6//3 2//1 
f 2//1 1//1 5//3 
s 2
f 7//4 8//4 6//3 
f 6//3 5//3 7//4 
f 9//5 10//5 8//4 
f 8//4 7//4 9//5 
f 11//6 12//6 10//5 
f 10//5 9//5 11//6 
f 13//7 14//7 12//6 
f 12//6 11//6 13//7 
f 15//8 16//8 14//7 
f 14//7 13//7 15//8 
f 17//9 18//9 16//8 
f 16//8 15//8 17//9 
f 19//10 20//10 18//9 
f 18//9 17//9 19//10 
f 21//11 22//11 20//10 
f 20//10 19//10 21//11 
f 23//12 24//12 22//11 
f 22//11 21//11 23//12 
f 25//13 26//13 24//12 
f 24//12 23//12 25//13 
f 27//14 28//14 26//13 
f 26//13 25//13 27//14 
f 29//15 30//15 28//14 
f 28//14 27//14 29//15 
f 31//16 32//16 30//15 
f 30//15 29//15 31//16 
f 33//17 34//17 32//16 
f 32//16 31//16 33//17 
f 35//18 36//18 34//17 
f 34//17 33//17 35//18 
f 37//19 38//19 36//18 
f 36//18 35//18 37//19 
f 39//20 40//20 38//19 
f 38//19 37//19 39//20 
f 41//21 42//21 40//20 
f 40//20 39//20 41//21 
f 43//22 44//22 42//21 
f 42//21 41//21 43//22 
f 45//23 46//23 44//22 
f 44//22 43//22 45//23 
f 47//24 48//24 46//23 
f 46//23 45//23 47//24 
f 49//25 50//25 48//24 
f 48//24 47//24 49//25 
f 51//26 52//26 50//25 
f 50//25 49//25 51//26 
f 53//27 54//27 52//26 
f 52//26 51//26 53//27 
f 55//28 56//28 54//27 
f 54//27 53//27 55//28 
f 57//29 58//29 56//28 
f 56//28 55//28 57//29 
f 59//30 60//30 58//29 
f 58//29 57//29 59//30 
f 61//31 62//31 60//30 
f 60//30 59//30 61//31 
f 63//32 64//32 62//31 
f 62//31 61//31 63//32 
f 65//33 66//33 64//32 
f 64//32 63//32 65//33 
f 67//34 68//34 66//33 
f 66//33 65//33 67//34 
f 69//35 70//35 68//34 
f 68//34 67//34 69//35 
f 71//36 72//36 70//35 
f 70//35 69//35 71//36 
f 73//37 74//37 72//36 
f 72//36 71//36 73//37 
s 4
f 75//38 76//38 74//39 
f 74//39 73//39 75//38 
f 77//40 78//40 76//38 
f 76//38 75//38 77//40 
f 79//41 80//41 78//40 
f 78//40 77//40 79//41 
f 81//42 82//42 80//41 
f 80//41 79//41 81//42 
f 83//43 84//43 82//42 
f 82//42 81//42 83//43 
f 85//44 86//44 84//43 
f 84//43 83//43 85//44 
f 87//45 88//45 86//44 
f 86//44 85//44 87//45 
f 89//46 90//46 88//45 
f 88//45 87//45 89//46 
f 91//47 92//47 90//46 
f 90//46 89//46 91//47 
f 93//48 94//48 92//47 
f 92//47 91//47 93//48 
f 95//49 96//49 94//48 
f 94//48 93//48 95//49 
f 97//50 98//50 96//49 
f 96//49 95//49 97//50 
f 99//51 100//51 98//50 
f 98//50 97//50 99//51 
f 101//52 102//52 100//51 
f 100//51 99//51 101//52 
f 103//53 104//53 102//52 
f 102//52 101//52 103//53 
f 105//54 106//54 104//53 
f 104//53 103//53 105//54 
f 107//55 108//55 106//54 
f 106//54 105//54 107//55 
f 109//56 110//56 108//55 
f 108//55 107//55 109//56 
f 111//57 112//57 110//56 
f 110//56 109//56 111//57 
f 113//58 114//58 112//57 
f 112//57 111//57 113//58 
f 115//59 116//59 114//58 
f 114//58 113//58 115//59 
f 117//60 118//60 116//59 
f 116//59 115//59 117//60 
f 119//61 120//61 118//60 
f 118//60 117//60 119//61 
f 121//62 122//62 120//61 
f 120//61 119//61 121//62 
f 123//63 124//63 122//62 
f 122//62 121//62 123//63 
f 125//64 126//64 124//63 
f 124//63 123//63 125//64 
f 127//65 128//65 126//64 
f 126//64 125//64 127//65 
f 129//66 130//66 128//65 
f 128//65 127//65 129//66 
f 131//67 132//67 130//66 
f 130//66 129//66 131//67 
f 133//68 134//68 132//67 
f 132//67 131//67 133//68 
f 135//69 136//69 134//68 
f 134//68 133//68 135//69 
f 137//70 138//70 136//69 
f 136//69 135//69 137//70 
f 139//71 140//71 138//70 
f 138//70 137//70 139//71 
f 141//72 142//72 140//71 
f 140//71 139//71 141//72 
f 143//73 144//73 142//72 
f 142//72 141//72 143//73 
f 145//74 146//74 144//73 
f 144//73 143//73 145//74 
s 2
f 147//75 148//75 146//75 
f 146//75 145//75 147//75 
s 4
f 149//76 150//76 148//77 
f 148//77 147//77 149//76 
f 151//78 152//78 150//76 
f 150//76 149//76 151//78 
f 153//79 154//79 152//78 
f 152//78 151//78 153//79 
f 155//80 156//80 154//79 
f 154//79 153//79 155//80 
f 157//81 158//81 156//80 
f 156//80 155//80 157//81 
f 159//82 160//82 158//81 
f 158//81 157//81 159//82 
f 161//83 162//83 160//82 
f 160//82 159//82 161//83 
f 163//84 164//84 162//83 
f 162//83 161//83 163//84 
f 165//85 166//85 164//84 
f 164//84 163//84 165//85 
f 167//86 168//86 166//85 
f 166//85 165//85 167//86 
f 169//87 170//87 168//86 
f 168//86 167//86 169//87 
f 171//88 172//88 170//87 
f 170//87 169//87 171//88 
f 173//89 174//89 172//88 
f 172//88 171//88 173//89 
f 175//90 176//90 174//89 
f 174//89 173//89 175//90 
f 177//91 178//91 176//90 
f 176//90 175//90 177//91 
f 179//92 180//92 178//91 
f 178//91 177//91 179//92 
f 181//93 182//93 180//92 
f 180//92 179//92 181//93 
f 183//94 184//94 182//93 
f 182//93 181//93 183//94 
f 185//95 186//95 184//94 
f 184//94 183//94 185//95 
f 187//96 188//96 186//95 
f 186//95 185//95 187//96 
f 189//97 190//97 188//96 
f 188//96 187//96 189//97 
f 191//98 192//98 190//97 
f 190//97 189//97 191//98 
f 193//99 194//99 192//98 
f 192//98 191//98 193//99 
f 195//100 196//100 194//99 
f 194//99 193//99 195//100 
f 197//101 198//101 196//100 
f 196//100 195//100 197//101 
f 199//102 200//102 198//101 
f 198//101 197//101 199//102 
f 201//103 202//103 200//102 
f 200//102 199//102 201//103 
f 203//104 204//104 202//103 
f 202//103 201//103 203//104 
f 205//105 206//105 204//104 
f 204//104 203//104 205//105 
f 207//106 208//106 206//105 
f 206//105 205//105 207//106 
f 209//107 210//107 208//106 
f 208//106 207//106 209//107 
f 211//108 212//108 210//107 
f 210//107 209//107 211//108 
f 213//109 214//109 212//108 
f 212//108 211//108 213//109 
f 215//110 216//110 214//109 
f 214//109 213//109 215//110 
f 217//111 218//111 216//110 
f 216//110 215//110 217//111 
f 219//112 220//112 218//111 
f 218//111 217//111 219//112 
s 2
f 221//113 222//113 220//113 
f 220//113 219//113 221//113 
s 4
f 223//114 224//114 222//115 
f 222//115 221//115 223//114 
f 225//116 226//116 224//114 
f 224//114 223//114 225//116 
f 227//117 228//117 226//116 
f 226//116 225//116 227//117 
f 229//118 230//118 228//117 
f 228//117 227//117 229//118 
f 231//119 232//119 230//118 
f 230//118 229//118 231//119 
f 233//120 234//120 232//119 
f 232//119 231//119 233//120 
f 235//121 236//121 234//120 
f 234//120 233//120 235//121 
f 237//122 238//122 236//121 
f 236//121 235//121 237//122 
f 239//123 240//123 238//122 
f 238//122 237//122 239//123 
f 241//124 242//124 240//123 
f 240//123 239//123 241//124 
f 243//125 244//125 242//124 
f 242//124 241//124 243//125 
f 245//126 246//126 244//125 
f 244//125 243//125 245//126 
f 247//127 248//127 246//126 
f 246//126 245//126 247//127 
f 249//128 250//128 248//127 
f 248//127 247//127 249//128 
f 251//129 252//129 250//128 
f 250//128 249//128 251//129 
f 253//130 254//130 252//129 
f 252//129 251//129 253//130 
f 255//131 256//131 254//130 
f 254//130 253//130 255//131 
f 257//132 258//132 256//131 
f 256//131 255//131 257//132 
f 259//133 260//133 258//132 
f 258//132 257//132 259//133 
f 261//134 262//134 260//133 
f 260//133 259//133 261//134 
f 263//135 264//135 262//134 
f 262//134 261//134 263//135 
f 265//136 266//136 264//135 
f 264//135 263//135 265//136 
f 267//137 268//137 266//136 
f 266//136 265//136 267//137 
f 269//138 270//138 268//137 
f 268//137 267//137 269//138 
f 271//139 272//139 270//138 
f 270//138 269//138 271//139 
f 273//140 274//140 272//139 
f 272//139 271//139 273//140 
f 275//141 276//141 274//140 
f 274//140 273//140 275//141 
f 277//142 278//142 276//141 
f 276//141 275//141 277//142 
f 279//143 280//143 278//142 
f 278//142 277//142 279//143 
f 281//144 282//144 280//143 
f 280//143 279//143 281//144 
f 283//145 284//145 282//144 
f 282//144 281//144 283//145 
f 285//146 286//146 284//145 
f 284//145 283//145 285//146 
f 287//147 288//147 286//146 
f 286//146 285//146 287//147 
f 289//148 290//148 288//147 
f 288//147 287//147 289//148 
f 291//149 292//149 290//148 
f 290//148 289//148 291//149 
f 293//150 294//150 292//149 
f 292//149 291//149 293//150 
f 295//151 296//151 294//150 
f 294//150 293//150 295//151 
f 297//152 298//152 296//151 
f 296//151 295//151 297//152 
f 299//153 300//153 298//152 
f 298//152 297//152 299//153 
f 301//154 302//154 300//153 
f 300//153 299//153 301//154 
f 303//155 304//155 302//154 
f 302//154 301//154 303//155 
f 305//156 306//156 304//155 
f 304//155 303//155 305//156 
s 2
f 4//157 3//157 306//157 
f 306//157 305//157 4//157 
s 512
f 307//158 308//158 309//158 
f 307//158 309//158 310//158 
f 311//158 312//158 313//158 
f 311//158 313//158 314//158 
f 311//158 314//158 315//158 
f 316//158 311//158 315//158 
f 316//158 315//158 317//158 
f 318//158 316//158 317//158 
f 318//158 317//158 319//158 
f 318//158 319//158 320//158 
f 321//158 318//158 320//158 
f 321//158 320//158 322//158 
f 323//158 321//158 322//158 
f 323//158 322//158 324//158 
f 325//158 323//158 324//158 
f 325//158 324//158 326//158 
f 325//158 326//158 327//158 
f 328//158 329//158 330//158 
f 331//158 328//158 330//158 
f 331//158 330//158 332//158 
f 333//158 331//158 332//158 
f 333//158 332//158 334//158 
f 335//158 333//158 334//158 
f 335//158 334//158 336//158 
f 337//158 335//158 336//158 
f 337//158 336//158 338//158 
f 339//158 337//158 338//158 
f 339//158 338//158 340//158 
f 341//158 339//158 340//158 
f 341//158 340//158 342//158 
f 343//158 341//158 342//158 
f 343//158 342//158 344//158 
f 345//158 343//158 344//158 
f 345//158 344//158 346//158 
f 347//158 345//158 346//158 
f 347//158 346//158 348//158 
f 349//158 347//158 348//158 
f 349//158 348//158 350//158 
f 351//158 349//158 350//158 
f 351//158 350//158 352//158 
f 353//158 351//158 352//158 
f 353//158 352//158 354//158 
f 355//158 353//158 354//158 
f 355//158 354//158 356//158 
f 357//158 355//158 356//158 
f 358//158 357//158 356//158 
f 358//158 356//158 359//158 
f 360//158 358//158 359//158 
f 360//158 359//158 361//158 
f 362//158 360//158 361//158 
f 362//158 361//158 363//158 
f 364//158 362//158 363//158 
f 364//158 363//158 365//158 
f 366//158 364//158 365//158 
f 366//158 365//158 367//158 
f 368//158 366//158 367//158 
f 368//158 367//158 369//158 
f 370//158 368//158 369//158 
f 370//158 369//158 371//158 
f 370//158 371//158 372//158 
f 373//158 370//158 372//158 
f 373//158 372//158 374//158 
f 375//158 373//158 374//158 
f 375//158 374//158 376//158 
f 377//158 375//158 376//158 
f 377//158 376//158 378//158 
f 379//158 377//158 378//158 
f 379//158 378//158 380//158 
f 379//158 380//158 381//158 
f 382//158 379//158 381//158 
f 382//158 381//158 383//158 
f 382//158 383//158 384//158 
f 385//158 382//158 384//158 
f 385//158 384//158 386//158 
f 385//158 386//158 387//158 
f 388//158 385//158 387//158 
f 388//158 387//158 389//158 
f 388//158 389//158 390//158 
f 391//158 388//158 390//158 
f 391//158 390//158 392//158 
f 391//158 392//158 393//158 
f 394//158 391//158 393//158 
f 394//158 393//158 395//158 
f 396//158 394//158 395//158 
f 327//158 396//158 395//158 
f 325//158 327//158 395//158 
f 397//158 325//158 395//158 
f 398//158 397//158 395//158 
f 399//158 398//158 395//158 
f 399//158 395//158 400//158 
f 401//158 399//158 400//158 
f 401//158 400//158 402//158 
f 403//158 401//158 402//158 
f 403//158 402//158 404//158 
f 405//158 403//158 404//158 
f 405//158 404//158 406//158 
f 407//158 405//158 406//158 
f 407//158 406//158 408//158 
f 409//158 407//158 408//158 
f 409//158 408//158 410//158 
f 409//158 410//158 411//158 
f 412//158 409//158 411//158 
f 412//158 411//158 413//158 
f 412//158 413//158 414//158 
f 415//158 412//158 414//158 
f 415//158 414//158 416//158 
f 417//158 415//158 416//158 
f 417//158 416//158 418//158 
f 419//158 417//158 418//158 
f 419//158 418//158 420//158 
f 421//158 419//158 420//158 
f 421//158 420//158 422//158 
f 423//158 421//158 422//158 
f 423//158 422//158 424//158 
f 425//158 423//158 424//158 
f 425//158 424//158 426//158 
f 427//158 425//158 426//158 
f 427//158 426//158 428//158 
f 429//158 427//158 428//158 
f 429//158 428//158 430//158 
f 431//158 429//158 430//158 
f 432//158 431//158 430//158 
f 432//158 430//158 433//158 
f 432//158 433//158 434//158 
f 435//158 432//158 434//158 
f 435//158 434//158 436//158 
f 437//158 435//158 436//158 
f 437//158 436//158 438//158 
f 439//158 437//158 438//158 
f 439//158 438//158 440//158 
f 439//158 440//158 441//158 
f 442//158 439//158 441//158 
f 442//158 441//158 443//158 
f 444//158 442//158 443//158 
f 444//158 443//158 445//158 
f 444//158 445//158 446//158 
f 447//158 444//158 446//158 
f 447//158 446//158 448//158 
f 449//158 447//158 448//158 
f 449//158 448//158 450//158 
f 449//158 450//158 451//158 
f 449//158 451//158 452//158 
f 453//158 449//158 452//158 
f 453//158 452//158 454//158 
f 455//158 453//158 454//158 
f 455//158 454//158 456//158 
f 455//158 456//158 457//158 
f 458//158 455//158 457//158 
f 458//158 457//158 459//158 
f 310//158 458//158 459//158 
f 307//158 310//158 459//158 
f 1//159 4//159 305//159 
f 1//159 305//159 303//159 
f 5//159 1//159 303//159 
f 5//159 303//159 301//159 
f 7//159 5//159 301//159 
f 7//159 301//159 299//159 
f 9//159 7//159 299//159 
f 9//159 299//159 297//159 
f 11//159 9//159 297//159 
f 11//159 297//159 295//159 
f 13//159 11//159 295//159 
f 13//159 295//159 293//159 
f 15//159 13//159 293//159 
f 15//159 293//159 291//159 
f 17//159 15//159 291//159 
f 17//159 291//159 289//159 
f 19//159 17//159 289//159 
f 19//159 289//159 287//159 
f 21//159 19//159 287//159 
f 21//159 287//159 285//159 
f 23//159 21//159 285//159 
f 23//159 285//159 283//159 
f 25//159 23//159 283//159 
f 25//159 283//159 281//159 
f 27//159 25//159 281//159 
f 27//159 281//159 279//159 
f 29//159 27//159 279//159 
f 29//159 279//159 277//159 
f 29//159 277//159 275//159 
f 31//159 29//159 275//159 
f 31//159 275//159 273//159 
f 33//159 31//159 273//159 
f 33//159 273//159 271//159 
f 35//159 33//159 271//159 
f 35//159 271//159 269//159 
f 37//159 35//159 269//159 
f 37//159 269//159 267//159 
f 39//159 37//159 267//159 
f 39//159 267//159 265//159 
f 41//159 39//159 265//159 
f 41//159 265//159 263//159 
f 43//159 41//159 263//159 
f 45//159 43//159 263//159 
f 45//159 263//159 261//159 
f 47//159 45//159 261//159 
f 47//159 261//159 259//159 
f 49//159 47//159 259//159 
f 49//159 259//159 257//159 
f 51//159 49//159 257//159 
f 51//159 257//159 255//159 
f 53//159 51//159 255//159 
f 55//159 53//159 255//159 
f 55//159 255//159 253//159 
f 57//159 55//159 253//159 
f 59//159 57//159 253//159 
f 59//159 253//159 251//159 
f 61//159 59//159 251//159 
f 63//159 61//159 251//159 
f 63//159 251//159 249//159 
f 65//159 63//159 249//159 
f 67//159 65//159 249//159 
f 67//159 249//159 247//159 
f 69//159 67//159 247//159 
f 71//159 69//159 247//159 
f 71//159 247//159 245//159 
f 73//159 71//159 245//159 
f 73//159 245//159 243//159 
f 73//159 243//159 241//159 
f 223//159 221//159 219//159 
f 225//159 223//159 219//159 
f 227//159 225//159 219//159 
f 227//159 219//159 217//159 
f 229//159 227//159 217//159 
f 229//159 217//159 215//159 
f 231//159 229//159 215//159 
f 233//159 231//159 215//159 
f 233//159 215//159 213//159 
f 235//159 233//159 213//159 
f 235//159 213//159 211//159 
f 237//159 235//159 211//159 
f 237//159 211//159 209//159 
f 239//159 237//159 209//159 
f 241//159 239//159 209//159 
f 73//159 241//159 209//159 
f 73//159 209//159 207//159 
f 73//159 207//159 205//159 
f 73//159 205//159 203//159 
f 75//159 73//159 203//159 
f 75//159 203//159 201//159 
f 77//159 75//159 201//159 
f 77//159 201//159 199//159 
f 79//159 77//159 199//159 
f 79//159 199//159 197//159 
f 81//159 79//159 197//159 
f 81//159 197//159 195//159 
f 83//159 81//159 195//159 
f 83//159 195//159 193//159 
f 85//159 83//159 193//159 
f 87//159 85//159 193//159 
f 87//159 193//159 191//159 
f 89//159 87//159 191//159 
f 91//159 89//159 191//159 
f 91//159 191//159 189//159 
f 93//159 91//159 189//159 
f 93//159 189//159 187//159 
f 95//159 93//159 187//159 
f 95//159 187//159 185//159 
f 97//159 95//159 185//159 
f 97//159 185//159 183//159 
f 99//159 97//159 183//159 
f 99//159 183//159 181//159 
f 101//159 99//159 181//159 
f 101//159 181//159 179//159 
f 103//159 101//159 179//159 
f 103//159 179//159 177//159 
f 105//159 103//159 177//159 
f 105//159 177//159 175//159 
f 107//159 105//159 175//159 
f 107//159 175//159 173//159 
f 107//159 173//159 171//159 
f 109//159 107//159 171//159 
f 111//159 109//159 171//159 
f 111//159 171//159 169//159 
f 113//159 111//159 169//159 
f 113//159 169//159 167//159 
f 115//159 113//159 167//159 
f 115//159 167//159 165//159 
f 117//159 115//159 165//159 
f 119//159 117//159 165//159 
f 119//159 165//159 163//159 
f 121//159 119//159 163//159 
f 121//159 163//159 161//159 
f 123//159 121//159 161//159 
f 125//159 123//159 161//159 
f 125//159 161//159 159//159 
f 127//159 125//159 159//159 
f 127//159 159//159 157//159 
f 129//159 127//159 157//159 
f 131//159 129//159 157//159 
f 133//159 131//159 157//159 
f 133//159 157//159 155//159 
f 135//159 133//159 155//159 
f 135//159 155//159 153//159 
f 137//159 135//159 153//159 
f 139//159 137//159 153//159 
f 139//159 153//159 151//159 
f 141//159 139//159 151//159 
f 141//159 151//159 149//159 
f 143//159 141//159 149//159 
f 143//159 149//159 147//159 
f 143//159 147//159 145//159 
s off
f 3//2 2//2 330//2 
f 330//2 329//2 3//2 
f 2//160 6//160 332//160 
f 332//160 330//160 2//160 
f 6//161 8//161 334//161 
f 334//161 332//161 6//161 
f 8//162 10//162 336//162 
f 336//162 334//162 8//162 
f 10//163 12//163 338//163 
f 338//163 336//163 10//163 
f 12//164 14//164 340//164 
f 340//164 338//164 12//164 
f 14//165 16//165 342//165 
f 342//165 340//165 14//165 
f 16//166 18//166 344//166 
f 344//166 342//166 16//166 
f 18//167 20//167 346//167 
f 346//167 344//167 18//167 
f 20//168 22//168 348//168 
f 348//168 346//168 20//168 
f 22//169 24//169 350//169 
f 350//169 348//169 22//169 
f 24//170 26//170 352//170 
f 352//170 350//170 24//170 
f 26//171 28//171 354//171 
f 354//171 352//171 26//171 
f 28//172 30//172 356//172 
f 356//172 354//172 28//172 
f 30//173 32//173 359//173 
f 359//173 356//173 30//173 
f 32//174 34//174 361//174 
f 361//174 359//174 32//174 
f 34//175 36//175 363//175 
f 363//175 361//175 34//175 
f 36//176 38//176 365//176 
f 365//176 363//176 36//176 
f 38//177 40//177 367//177 
f 367//177 365//177 38//177 
f 40//178 42//178 369//178 
f 369//178 367//178 40//178 
f 42//179 44//179 371//179 
f 371//179 369//179 42//179 
f 44//180 46//180 372//180 
f 372//180 371//180 44//180 
f 46//181 48//181 374//181 
f 374//181 372//181 46//181 
f 48//182 50//182 376//182 
f 376//182 374//182 48//182 
f 50//183 52//183 378//183 
f 378//183 376//183 50//183 
f 52//184 54//184 380//184 
f 380//184 378//184 52//184 
f 54//185 56//185 381//185 
f 381//185 380//185 54//185 
f 56//186 58//186 383//186 
f 383//186 381//186 56//186 
f 58//187 60//187 384//187 
f 384//187 383//187 58//187 
f 60//188 62//188 386//188 
f 386//188 384//188 60//188 
f 62//189 64//189 387//189 
f 387//189 386//189 62//189 
f 64//190 66//190 389//190 
f 389//190 387//190 64//190 
f 66//191 68//191 390//191 
f 390//191 389//191 66//191 
f 68//192 70//192 392//192 
f 392//192 390//192 68//192 
f 70//193 72//193 393//193 
f 393//193 392//193 70//193 
f 72//37 74//37 395//37 
f 395//37 393//37 72//37 
f 74//39 76//39 400//39 
f 400//39 395//39 74//39 
f 76//194 78//194 402//194 
f 402//194 400//194 76//194 
f 78//195 80//195 404//195 
f 404//195 402//195 78//195 
f 80//196 82//196 406//196 
f 406//196 404//196 80//196 
f 82//197 84//197 408//197 
f 408//197 406//197 82//197 
f 84//198 86//198 410//198 
f 410//198 408//198 84//198 
f 86//199 88//199 411//199 
f 411//199 410//199 86//199 
f 88//200 90//200 413//200 
f 413//200 411//200 88//200 
f 90//201 92//201 414//201 
f 414//201 413//201 90//201 
f 92//202 94//202 416//202 
f 416//202 414//202 92//202 
f 94//203 96//203 418//203 
f 418//203 416//203 94//203 
f 96//204 98//204 420//204 
f 420//204 418//204 96//204 
f 98//205 100//205 422//205 
f 422//205 420//205 98//205 
f 100//206 102//206 424//206 
f 424//206 422//206 100//206 
f 102//207 104//207 426//207 
f 426//207 424//207 102//207 
f 104//208 106//208 428//208 
f 428//208 426//208 104//208 
f 106//209 108//209 430//209 
f 430//209 428//209 106//209 
f 108//210 110//210 433//210 
f 433//210 430//210 108//210 
f 110//211 112//211 434//211 
f 434//211 433//211 110//211 
f 112//212 114//212 436//212 
f 436//212 434//212 112//212 
f 114//213 116//213 438//213 
f 438//213 436//213 114//213 
f 116//214 118//214 440//214 
f 440//214 438//214 116//214 
f 118//215 120//215 441//215 
f 441//215 440//215 118//215 
f 120//216 122//216 443//216 
f 443//216 441//216 120//216 
f 122//217 124//217 445//217 
f 445//217 443//217 122//217 
f 124//218 126//218 446//218 
f 446//218 445//218 124//218 
f 126//219 128//219 448//219 
f 448//219 446//219 126//219 
f 128//220 130//220 450//220 
f 450//220 448//220 128//220 
f 130//221 132//221 451//221 
f 451//221 450//221 130//221 
f 132//222 134//222 452//222 
f 452//222 451//222 132//222 
f 134//223 136//223 454//223 
f 454//223 452//223 134//223 
f 136//224 138//224 456//224 
f 456//224 454//224 136//224 
f 138//225 140//225 457//225 
f 457//225 456//225 138//225 
f 140//226 142//226 459//226 
f 459//226 457//226 140//226 
f 142//227 144//227 307//227 
f 307//227 459//227 142//227 
f 144//74 146//74 308//74 
f 308//74 307//74 144//74 
f 146//75 148//75 309//75 
f 309//75 308//75 146//75 
f 148//77 150//77 310//77 
f 310//77 309//77 148//77 
f 150//228 152//228 458//228 
f 458//228 310//228 150//228 
f 152//229 154//229 455//229 
f 455//229 458//229 152//229 
f 154//230 156//230 453//230 
f 453//230 455//230 154//230 
f 156//231 158//231 449//231 
f 449//231 453//231 156//231 
f 158//232 160//232 447//232 
f 447//232 449//232 158//232 
f 160//233 162//233 444//233 
f 444//233 447//233 160//233 
f 162//234 164//234 442//234 
f 442//234 444//234 162//234 
f 164//235 166//235 439//235 
f 439//235 442//235 164//235 
f 166//236 168//236 437//236 
f 437//236 439//236 166//236 
f 168//237 170//237 435//237 
f 435//237 437//237 168//237 
f 170//238 172//238 432//238 
f 432//238 435//238 170//238 
f 172//239 174//239 431//239 
f 431//239 432//239 172//239 
f 174//240 176//240 429//240 
f 429//240 431//240 174//240 
f 176//241 178//241 427//241 
f 427//241 429//241 176//241 
f 178//242 180//242 425//242 
f 425//242 427//242 178//242 
f 180//243 182//243 423//243 
f 423//243 425//243 180//243 
f 182//244 184//244 421//244 
f 421//244 423//244 182//244 
f 184//245 186//245 419//245 
f 419//245 421//245 184//245 
f 186//246 188//246 417//246 
f 417//246 419//246 186//246 
f 188//247 190//247 415//247 
f 415//247 417//247 188//247 
f 190//248 192//248 412//248 
f 412//248 415//248 190//248 
f 192//249 194//249 409//249 
f 409//249 412//249 192//249 
f 194//250 196//250 407//250 
f 407//250 409//250 194//250 
f 196//251 198//251 405//251 
f 405//251 407//251 196//251 
f 198//252 200//252 403//252 
f 403//252 405//252 198//252 
f 200//253 202//253 401//253 
f 401//253 403//253 200//253 
f 202//254 204//254 399//254 
f 399//254 401//254 202//254 
f 204//255 206//255 398//255 
f 398//255 399//255 204//255 
f 206//256 208//256 397//256 
f 397//256 398//256 206//256 
f 208//257 210//257 325//257 
f 325//257 397//257 208//257 
f 210//258 212//258 323//258 
f 323//258 325//258 210//258 
f 212//259 214//259 321//259 
f 321//259 323//259 212//259 
f 214//260 216//260 318//260 
f 318//260 321//260 214//260 
f 216//261 218//261 316//261 
f 316//261 318//261 216//261 
f 218//112 220//112 311//112 
f 311//112 316//112 218//112 
f 220//113 222//113 312//113 
f 312//113 311//113 220//113 
f 222//115 224//115 313//115 
f 313//115 312//115 222//115 
f 224//262 226//262 314//262 
f 314//262 313//262 224//262 
f 226//263 228//263 315//263 
f 315//263 314//263 226//263 
f 228//264 230//264 317//264 
f 317//264 315//264 228//264 
f 230//265 232//265 319//265 
f 319//265 317//265 230//265 
f 232//266 234//266 320//266 
f 320//266 319//266 232//266 
f 234//267 236//267 322//267 
f 322//267 320//267 234//267 
f 236//268 238//268 324//268 
f 324//268 322//268 236//268 
f 238//269 240//269 326//269 
f 326//269 324//269 238//269 
f 240//270 242//270 327//270 
f 327//270 326//270 240//270 
f 242//271 244//271 396//271 
f 396//271 327//271 242//271 
f 244//272 246//272 394//272 
f 394//272 396//272 244//272 
f 246//273 248//273 391//273 
f 391//273 394//273 246//273 
f 248//274 250//274 388//274 
f 388//274 391//274 248//274 
f 250//275 252//275 385//275 
f 385//275 388//275 250//275 
f 252//276 254//276 382//276 
f 382//276 385//276 252//276 
f 254//277 256//277 379//277 
f 379//277 382//277 254//277 
f 256//278 258//278 377//278 
f 377//278 379//278 256//278 
f 258//279 260//279 375//279 
f 375//279 377//279 258//279 
f 260//280 262//280 373//280 
f 373//280 375//280 260//280 
f 262//281 264//281 370//281 
f 370//281 373//281 262//281 
f 264//282 266//282 368//282 
f 368//282 370//282 264//282 
f 266//283 268//283 366//283 
f 366//283 368//283 266//283 
f 268//284 270//284 364//284 
f 364//284 366//284 268//284 
f 270//285 272//285 362//285 
f 362//285 364//285 270//285 
f 272//286 274//286 360//286 
f 360//286 362//286 272//286 
f 274//287 276//287 358//287 
f 358//287 360//287 274//287 
f 276//288 278//288 357//288 
f 357//288 358//288 276//288 
f 278//289 280//289 355//289 
f 355//289 357//289 278//289 
f 280//290 282//290 353//290 
f 353//290 355//290 280//290 
f 282//291 284//291 351//291 
f 351//291 353//291 282//291 
f 284//292 286//292 349//292 
f 349//292 351//292 284//292 
f 286//293 288//293 347//293 
f 347//293 349//293 286//293 
f 288//294 290//294 345//294 
f 345//294 347//294 288//294 
f 290//295 292//295 343//295 
f 343//295 345//295 290//295 
f 292//296 294//296 341//296 
f 341//296 343//296 292//296 
f 294//297 296//297 339//297 
f 339//297 341//297 294//297 
f 296//298 298//298 337//298 
f 337//298 339//298 296//298 
f 298//299 300//299 335//299 
f 335//299 337//299 298//299 
f 300//300 302//300 333//300 
f 333//300 335//300 300//300 
f 302//301 304//301 331//301 
f 331//301 333//301 302//301 
f 304//156 306//156 328//156 
f 328//156 331//156 304//156 
f 306//157 3//157 329//157 
f 329//157 328//157 306//157 
# 914 faces

